<svg viewBox="0 0 330.0000305175781 200.00001525878906" xmlns="http://www.w3.org/2000/svg"><g><g><g><g><g><line x1="70" y1="178" x2="65" y2="178" style="visibility: inherit;" fill="rgb(0, 0, 0)" stroke="rgb(204, 204, 204)" stroke-width="1px"></line><line x1="70" y1="163.16666666666666" x2="65" y2="163.16666666666666" style="visibility: inherit;" fill="rgb(0, 0, 0)" stroke="rgb(204, 204, 204)" stroke-width="1px"></line><line x1="70" y1="148.33333333333331" x2="65" y2="148.33333333333331" style="visibility: inherit;" fill="rgb(0, 0, 0)" stroke="rgb(204, 204, 204)" stroke-width="1px"></line><line x1="70" y1="133.5" x2="65" y2="133.5" style="visibility: inherit;" fill="rgb(0, 0, 0)" stroke="rgb(204, 204, 204)" stroke-width="1px"></line><line x1="70" y1="118.66666666666666" x2="65" y2="118.66666666666666" style="visibility: inherit;" fill="rgb(0, 0, 0)" stroke="rgb(204, 204, 204)" stroke-width="1px"></line><line x1="70" y1="103.83333333333333" x2="65" y2="103.83333333333333" style="visibility: inherit;" fill="rgb(0, 0, 0)" stroke="rgb(204, 204, 204)" stroke-width="1px"></line><line x1="70" y1="88.99999999999999" x2="65" y2="88.99999999999999" style="visibility: inherit;" fill="rgb(0, 0, 0)" stroke="rgb(204, 204, 204)" stroke-width="1px"></line><line x1="70" y1="74.16666666666669" x2="65" y2="74.16666666666669" style="visibility: inherit;" fill="rgb(0, 0, 0)" stroke="rgb(204, 204, 204)" stroke-width="1px"></line><line x1="70" y1="59.333333333333314" x2="65" y2="59.333333333333314" style="visibility: inherit;" fill="rgb(0, 0, 0)" stroke="rgb(204, 204, 204)" stroke-width="1px"></line><line x1="70" y1="44.5" x2="65" y2="44.5" style="visibility: inherit;" fill="rgb(0, 0, 0)" stroke="rgb(204, 204, 204)" stroke-width="1px"></line><line x1="70" y1="29.666666666666686" x2="65" y2="29.666666666666686" style="visibility: inherit;" fill="rgb(0, 0, 0)" stroke="rgb(204, 204, 204)" stroke-width="1px"></line><line x1="70" y1="14.833333333333314" x2="65" y2="14.833333333333314" style="visibility: inherit;" fill="rgb(0, 0, 0)" stroke="rgb(204, 204, 204)" stroke-width="1px"></line><line x1="70" y1="0" x2="65" y2="0" style="visibility: inherit;" fill="rgb(0, 0, 0)" stroke="rgb(204, 204, 204)" stroke-width="1px"></line></g><g transform="translate(60, 0)"><text x="0" y="178" dx="0em" dy="0.3em" style="text-anchor: end; visibility: hidden; font-family: &quot;Helvetica Neue&quot;, sans-serif; font-size: 12px; font-weight: 200;" fill="rgb(50, 49, 63)" stroke="none" stroke-width="1px">-0.02</text><text x="0" y="163.16666666666666" dx="0em" dy="0.3em" style="text-anchor: end; visibility: inherit; font-family: &quot;Helvetica Neue&quot;, sans-serif; font-size: 12px; font-weight: 200;" fill="rgb(50, 49, 63)" stroke="none" stroke-width="1px">0</text><text x="0" y="148.33333333333331" dx="0em" dy="0.3em" style="text-anchor: end; visibility: hidden; font-family: &quot;Helvetica Neue&quot;, sans-serif; font-size: 12px; font-weight: 200;" fill="rgb(50, 49, 63)" stroke="none" stroke-width="1px">0.02</text><text x="0" y="133.5" dx="0em" dy="0.3em" style="text-anchor: end; visibility: inherit; font-family: &quot;Helvetica Neue&quot;, sans-serif; font-size: 12px; font-weight: 200;" fill="rgb(50, 49, 63)" stroke="none" stroke-width="1px">0.04</text><text x="0" y="118.66666666666666" dx="0em" dy="0.3em" style="text-anchor: end; visibility: hidden; font-family: &quot;Helvetica Neue&quot;, sans-serif; font-size: 12px; font-weight: 200;" fill="rgb(50, 49, 63)" stroke="none" stroke-width="1px">0.06</text><text x="0" y="103.83333333333333" dx="0em" dy="0.3em" style="text-anchor: end; visibility: inherit; font-family: &quot;Helvetica Neue&quot;, sans-serif; font-size: 12px; font-weight: 200;" fill="rgb(50, 49, 63)" stroke="none" stroke-width="1px">0.08</text><text x="0" y="88.99999999999999" dx="0em" dy="0.3em" style="text-anchor: end; visibility: hidden; font-family: &quot;Helvetica Neue&quot;, sans-serif; font-size: 12px; font-weight: 200;" fill="rgb(50, 49, 63)" stroke="none" stroke-width="1px">0.1</text><text x="0" y="74.16666666666669" dx="0em" dy="0.3em" style="text-anchor: end; visibility: inherit; font-family: &quot;Helvetica Neue&quot;, sans-serif; font-size: 12px; font-weight: 200;" fill="rgb(50, 49, 63)" stroke="none" stroke-width="1px">0.12</text><text x="0" y="59.333333333333314" dx="0em" dy="0.3em" style="text-anchor: end; visibility: hidden; font-family: &quot;Helvetica Neue&quot;, sans-serif; font-size: 12px; font-weight: 200;" fill="rgb(50, 49, 63)" stroke="none" stroke-width="1px">0.14</text><text x="0" y="44.5" dx="0em" dy="0.3em" style="text-anchor: end; visibility: inherit; font-family: &quot;Helvetica Neue&quot;, sans-serif; font-size: 12px; font-weight: 200;" fill="rgb(50, 49, 63)" stroke="none" stroke-width="1px">0.16</text><text x="0" y="29.666666666666686" dx="0em" dy="0.3em" style="text-anchor: end; visibility: hidden; font-family: &quot;Helvetica Neue&quot;, sans-serif; font-size: 12px; font-weight: 200;" fill="rgb(50, 49, 63)" stroke="none" stroke-width="1px">0.18</text><text x="0" y="14.833333333333314" dx="0em" dy="0.3em" style="text-anchor: end; visibility: inherit; font-family: &quot;Helvetica Neue&quot;, sans-serif; font-size: 12px; font-weight: 200;" fill="rgb(50, 49, 63)" stroke="none" stroke-width="1px">0.2</text><text x="0" y="0" dx="0em" dy="0.3em" style="text-anchor: end; visibility: hidden; font-family: &quot;Helvetica Neue&quot;, sans-serif; font-size: 12px; font-weight: 200;" fill="rgb(50, 49, 63)" stroke="none" stroke-width="1px">0.22</text></g><line x1="70" y1="0" x2="70" y2="178" fill="rgb(0, 0, 0)" stroke="rgb(204, 204, 204)" stroke-width="1px"></line></g></g><g transform="translate(70, 0)" clip-path="url(#clip_0)"><clipPath id="clip_0"><rect width="260" height="177"></rect></clipPath><g><g><g><line x1="0" y1="0" x2="0" y2="178" fill="rgb(0, 0, 0)" stroke="rgb(60, 60, 60)" stroke-width="1px" opacity="0.25"></line><line x1="18.57142857142857" y1="0" x2="18.57142857142857" y2="178" fill="rgb(0, 0, 0)" stroke="rgb(60, 60, 60)" stroke-width="1px" opacity="0.25"></line><line x1="37.14285714285714" y1="0" x2="37.14285714285714" y2="178" fill="rgb(0, 0, 0)" stroke="rgb(60, 60, 60)" stroke-width="1px" opacity="0.25"></line><line x1="55.71428571428571" y1="0" x2="55.71428571428571" y2="178" fill="rgb(0, 0, 0)" stroke="rgb(60, 60, 60)" stroke-width="1px" opacity="0.25"></line><line x1="74.28571428571428" y1="0" x2="74.28571428571428" y2="178" fill="rgb(0, 0, 0)" stroke="rgb(60, 60, 60)" stroke-width="1px" opacity="0.25"></line><line x1="92.85714285714286" y1="0" x2="92.85714285714286" y2="178" fill="rgb(0, 0, 0)" stroke="rgb(60, 60, 60)" stroke-width="1px" opacity="0.25"></line><line x1="111.42857142857142" y1="0" x2="111.42857142857142" y2="178" fill="rgb(0, 0, 0)" stroke="rgb(60, 60, 60)" stroke-width="1px" opacity="0.25"></line><line x1="130" y1="0" x2="130" y2="178" fill="rgb(0, 0, 0)" stroke="rgb(60, 60, 60)" stroke-width="1px" opacity="0.25"></line><line x1="148.57142857142856" y1="0" x2="148.57142857142856" y2="178" fill="rgb(0, 0, 0)" stroke="rgb(60, 60, 60)" stroke-width="1px" opacity="0.25"></line><line x1="167.14285714285717" y1="0" x2="167.14285714285717" y2="178" fill="rgb(0, 0, 0)" stroke="rgb(60, 60, 60)" stroke-width="1px" opacity="0.25"></line><line x1="185.71428571428572" y1="0" x2="185.71428571428572" y2="178" fill="rgb(0, 0, 0)" stroke="rgb(60, 60, 60)" stroke-width="1px" opacity="0.25"></line><line x1="204.28571428571428" y1="0" x2="204.28571428571428" y2="178" fill="rgb(0, 0, 0)" stroke="rgb(60, 60, 60)" stroke-width="1px" opacity="0.25"></line><line x1="222.85714285714283" y1="0" x2="222.85714285714283" y2="178" fill="rgb(0, 0, 0)" stroke="rgb(60, 60, 60)" stroke-width="1px" opacity="0.25"></line><line x1="241.42857142857144" y1="0" x2="241.42857142857144" y2="178" fill="rgb(0, 0, 0)" stroke="rgb(60, 60, 60)" stroke-width="1px" opacity="0.25"></line><line x1="260" y1="0" x2="260" y2="178" fill="rgb(0, 0, 0)" stroke="rgb(60, 60, 60)" stroke-width="1px" opacity="0.25"></line></g><g><line x1="0" y1="178" x2="260" y2="178" fill="rgb(0, 0, 0)" stroke="rgb(60, 60, 60)" stroke-width="1px" opacity="0.25"></line><line x1="0" y1="163.16666666666666" x2="260" y2="163.16666666666666" fill="rgb(0, 0, 0)" stroke="rgb(60, 60, 60)" stroke-width="1px" opacity="0.25"></line><line x1="0" y1="148.33333333333331" x2="260" y2="148.33333333333331" fill="rgb(0, 0, 0)" stroke="rgb(60, 60, 60)" stroke-width="1px" opacity="0.25"></line><line x1="0" y1="133.5" x2="260" y2="133.5" fill="rgb(0, 0, 0)" stroke="rgb(60, 60, 60)" stroke-width="1px" opacity="0.25"></line><line x1="0" y1="118.66666666666666" x2="260" y2="118.66666666666666" fill="rgb(0, 0, 0)" stroke="rgb(60, 60, 60)" stroke-width="1px" opacity="0.25"></line><line x1="0" y1="103.83333333333333" x2="260" y2="103.83333333333333" fill="rgb(0, 0, 0)" stroke="rgb(60, 60, 60)" stroke-width="1px" opacity="0.25"></line><line x1="0" y1="88.99999999999999" x2="260" y2="88.99999999999999" fill="rgb(0, 0, 0)" stroke="rgb(60, 60, 60)" stroke-width="1px" opacity="0.25"></line><line x1="0" y1="74.16666666666669" x2="260" y2="74.16666666666669" fill="rgb(0, 0, 0)" stroke="rgb(60, 60, 60)" stroke-width="1px" opacity="0.25"></line><line x1="0" y1="59.333333333333314" x2="260" y2="59.333333333333314" fill="rgb(0, 0, 0)" stroke="rgb(60, 60, 60)" stroke-width="1px" opacity="0.25"></line><line x1="0" y1="44.5" x2="260" y2="44.5" fill="rgb(0, 0, 0)" stroke="rgb(60, 60, 60)" stroke-width="1px" opacity="0.25"></line><line x1="0" y1="29.666666666666686" x2="260" y2="29.666666666666686" fill="rgb(0, 0, 0)" stroke="rgb(60, 60, 60)" stroke-width="1px" opacity="0.25"></line><line x1="0" y1="14.833333333333314" x2="260" y2="14.833333333333314" fill="rgb(0, 0, 0)" stroke="rgb(60, 60, 60)" stroke-width="1px" opacity="0.25"></line><line x1="0" y1="0" x2="260" y2="0" fill="rgb(0, 0, 0)" stroke="rgb(60, 60, 60)" stroke-width="1px" opacity="0.25"></line></g></g></g><g><g><line x1="0" y1="163.16666666666666" x2="260" y2="163.16666666666666" fill="rgb(0, 0, 0)" stroke="rgb(153, 153, 153)" stroke-width="1.5px"></line></g></g><g><g><line x1="-55.71428571428571" y1="0" x2="-55.71428571428571" y2="178" fill="rgb(0, 0, 0)" stroke="rgb(153, 153, 153)" stroke-width="1.5px"></line></g></g><g><g><g><g><g><path stroke="rgb(255, 112, 67)" stroke-width="2px" d="M6.481428571428571,163.16666666666666L7.41,8.406729222417994L8.338571428571429,-19.73828402123945L9.267142857142858,-15.938067870145431L10.195714285714287,32.35595827138917L11.124285714285715,39.13702337970514L12.052857142857142,66.51974211372634L12.981428571428571,49.37438458579848L13.91,46.31126689409189L14.838571428571429,27.576124426901345L15.767142857142858,7.61399111164917L16.695714285714285,34.8161795223956L17.624285714285712,37.746456482077264L18.552857142857142,58.71435166887065L19.48142857142857,75.88185255211599L20.41,69.16258695348839L21.338571428571427,84.21308752384904L22.267142857142858,76.30784640225146L23.19571428571429,89.95916189754222L24.124285714285715,91.69754497079406L25.052857142857146,45.2533931926246L25.98142857142857,63.44995642531566L26.91,78.77218088933145L27.838571428571427,61.6115797538324L28.767142857142858,39.543966261711404L29.695714285714285,58.36246270749689L30.624285714285715,56.45939398079989L31.552857142857142,53.57628377755134L32.48142857142857,42.034592046604416L33.410000000000004,33.81403617988647L34.33857142857143,12.555282165081735L35.26714285714286,-26.21771225554528L36.19571428571428,2.323696480803221L37.12428571428572,26.54662931881029L38.05285714285714,47.10925603877163L38.98142857142857,35.24066153678217L39.91,54.47661820162892L40.838571428571434,51.26032165116247L41.76714285714286,68.07599364472776L42.69571428571428,82.361055063643L43.62428571428571,94.4973943761571L44.55285714285714,82.81572511135847L45.48142857142857,94.87949638914479L46.41,105.13061096391318L47.33857142857143,113.84182603275238L48.26714285714286,90.01574194138801L49.19571428571429,100.99366765609437L50.12428571428571,110.32343676861319L51.05285714285714,89.70366603401821L51.98142857142857,81.79944562660823L52.91,69.20684262083462L53.83857142857143,83.30382861221645L54.76714285714286,95.2854306163261L55.69571428571429,105.46918830444083L56.62428571428571,114.12494597421673L57.55285714285714,121.48202474182554L58.48142857142857,109.47158977232851L59.410000000000004,117.5265004764494L60.33857142857143,124.37299441794394L61.26714285714286,130.1923841095384L62.19571428571429,135.13877131067505L63.12428571428572,139.34313249190802L64.05285714285715,105.77875156252259L64.98142857142857,108.81493222074381L65.91,116.96790303016053L66.83857142857143,123.89786976357942L67.76714285714286,103.54658518541791L68.69571428571429,112.4897393060592L69.62428571428572,120.09138093125227L70.55285714285714,126.55274786273444L71.48142857142857,132.04488919954431L72.41000000000001,110.29888087972901L73.33857142857143,118.22910457769092L74.26714285714286,124.96977922806269L75.19571428571429,130.6993414872972L76.1242857142857,129.03477081136606L77.05285714285715,105.59306864280623L77.98142857142857,114.22913532329466L78.91,121.56978451559758L79.83857142857143,127.80933092034667L80.76714285714286,133.11294145659627L81.69571428571429,128.5913500559416L82.62428571428572,133.7776547358945L83.55285714285714,138.18601171908662L84.48142857142858,113.35919849647297L85.41,103.32229082074528L86.33857142857143,112.29895369236874L87.26714285714286,117.51124642050134L88.19571428571427,97.56322250431903L89.12428571428572,107.40374350108651L90.05285714285715,115.76818513499313L90.98142857142857,122.87795964717168L91.91,107.68319416159937L92.83857142857144,116.00571696770037L93.76714285714286,118.74492892426233L94.69571428571429,125.40819070223873L95.6242857142857,131.07196290365772L96.55285714285714,135.8861690509894L97.48142857142858,139.97824411447203L98.41,121.92395175716709L99.33857142857143,128.11035945358375L100.26714285714286,133.36880586789022L101.19571428571429,137.83848522782523L102.12428571428572,141.6377126171371L103.05285714285714,144.86705584990992L103.98142857142857,147.61199756298402L104.91000000000001,149.94519799396645L105.83857142857143,151.92841834214468L106.76714285714286,120.2957957686265L107.69571428571429,126.7264265140804L108.6242857142857,132.19246261698368L109.55285714285715,136.83859328224722L110.48142857142857,140.78780433167864L111.41,144.1446337121046L112.33857142857143,146.99793867709232L113.26714285714286,149.42324789128145L114.19571428571429,151.48476071897076L115.12428571428572,153.2370466193483L116.05285714285714,133.06837211012285L116.98142857142858,104.1534686604811L117.91,95.52063753716907L118.83857142857143,105.66754193145034L119.76714285714286,114.29241065969173L120.69571428571427,121.62354907371329L121.62428571428572,127.85501672203097L122.55285714285715,111.6587690202764L123.48142857142857,89.28394388658826L124.41,100.366352313839L125.33857142857144,109.78639947416083L126.26714285714286,98.24320628553436L127.19571428571429,76.92267953898123L128.12428571428572,74.03216959981563L129.05285714285714,58.56346885977041L129.98142857142858,74.25394853627213L130.91,87.59085625978143L131.83857142857144,98.92722782366819L132.76714285714286,108.56314365217995L133.6957142857143,116.75367210584274L134.62428571428572,123.71562129104271L135.55285714285714,113.24897404192936L136.48142857142858,120.73662793647637L137.41,127.10113374660921L138.3385714285714,132.51096368505443L139.26714285714286,117.40734168458485L140.1957142857143,106.88395531049827L141.12428571428572,112.9849371588223L142.05285714285714,120.51219658531608L142.98142857142858,126.9103670977478L143.91,132.34881203325116L144.8385714285714,122.34382870925205L145.76714285714286,128.46725440299892L146.69571428571427,133.67216624264637L147.62428571428572,138.09634130631972L148.55285714285716,141.85689011042254L149.48142857142858,145.05335659389584L150.41,133.0064739247394L151.33857142857144,137.530502836066L152.26714285714286,120.49718818392655L153.19571428571427,105.92783184318311L154.1242857142857,114.51365706674937L155.05285714285714,94.13325729063051L155.98142857142858,104.48826869707405L156.91,87.4905840560156L157.83857142857144,93.2106175073219L158.76714285714286,103.70402488124734L159.69571428571427,112.62342114907737L160.62428571428572,102.0893001599726L161.55285714285714,88.7657407692957L162.48142857142855,90.69073334744849L163.41,84.16546694014397L164.33857142857144,96.01564689913248L165.26714285714286,106.0882998642699L166.1957142857143,114.6500548846347L167.12428571428572,104.62092784968479L168.05285714285714,98.69575554095785L168.98142857142858,108.36639220981782L169.91,116.58643337834778L170.8385714285714,123.57346837159753L171.76714285714286,129.51244811585929L172.6957142857143,103.55258730466328L173.62428571428572,112.49469920896529L174.55285714285714,120.09549432762157L175.48142857142858,126.55617017847914L176.41,132.04774465170783L177.3385714285714,136.71558295395207L178.26714285714286,140.68324551085954L179.19571428571427,127.3247320273041L180.12428571428572,132.70102222320875L181.05285714285716,137.27086888972767L181.98142857142858,141.15523855626867L182.91,144.45695277282846L183.83857142857144,125.57989562695039L184.76714285714286,131.21791128290795L185.69571428571427,136.01022459047186L186.6242857142857,140.08369090190115L187.55285714285714,143.54613726661603L188.48142857142858,146.48921667662367L189.41,148.99083417513015L190.33857142857144,151.11720904886064L191.26714285714286,152.92462769153155L192.19571428571427,134.3921547696199L193.12428571428572,121.05491389239077L194.05285714285714,127.37167680853219L194.98142857142855,132.74092528725237L195.91,137.30478649416455L196.83857142857144,141.18406852003986L197.76714285714286,144.4814582420339L198.6957142857143,147.2842395057288L199.62428571428572,149.6666035798695L200.55285714285714,151.6916130428891L201.48142857142858,153.4128710864557L202.41,154.87594042348735L203.3385714285714,156.11954935996425L204.26714285714286,157.17661695596962L205.1957142857143,158.07512441257418L206.12428571428572,158.83885575068805L207.05285714285714,159.48802738808484L207.98142857142858,160.0398232798721L208.91,134.75735764893926L209.8385714285714,139.01875400159838L210.76714285714286,116.97929738136102L211.69571428571427,107.2016585262733L212.62428571428572,115.59640974733232L213.55285714285716,122.73194828523248L214.48142857142858,107.79266455679229L215.41,116.09876487327344L216.33857142857144,123.15895014228244L217.26714285714286,129.16010762094007L218.19571428571427,134.26109147779906L219.1242857142857,138.59692775612922L220.05285714285714,142.28238859270982L220.98142857142858,145.41503030380335L221.91,148.07777575823286L222.83857142857144,150.34110939449792L223.76714285714286,152.26494298532322L224.69571428571427,153.90020153752477L225.62428571428572,155.29017130689604L226.55285714285714,156.47164561086163L227.48142857142855,157.4758987692324L228.41,158.32951395384754L229.33857142857144,159.0550868607704L230.26714285714286,138.26404053942088L231.1957142857143,141.99943445850775L232.12428571428572,145.1745192897316L233.05285714285714,146.8569093121287L233.98142857142858,149.30337291530938L234.91,151.38286697801297L235.8385714285714,153.15043693131105L236.76714285714286,135.55130598588795L237.6957142857143,139.69361008800476L238.62428571428572,143.21456857480405L239.55285714285714,128.30635020001856L240.48142857142858,113.7345086622686L241.41,121.1493323629283L242.3385714285714,127.45193250848905L243.26714285714286,132.8091426322157L244.19571428571427,137.36277123738336L245.12428571428572,141.23335555177584L246.05285714285716,144.52335221900947L246.98142857142858,147.31984938615804L247.91,149.69687197823436" style="fill: none;" fill="none"></path></g></g></g></g><g opacity="0.2"><g><g><g><path stroke="rgb(255, 112, 67)" stroke-width="2px" d="M6.481428571428571,163.16666666666666L7.41,-123.1392176051935L9.267142857142858,-7.628420228759467L10.195714285714287,163.16666666666666L11.124285714285715,60.51322285334268L12.052857142857142,163.16666666666666L12.981428571428571,-16.636324907342612L13.91,33.683399746815354L14.838571428571429,-53.999882797400176L15.767142857142858,-83.23457674185437L16.695714285714285,163.16666666666666L17.624285714285712,51.98944870630899L18.552857142857142,163.16666666666666L19.48142857142857,163.16666666666666L20.41,34.41283369064331L21.338571428571427,163.16666666666666L22.267142857142858,34.338732078671455L23.19571428571429,163.16666666666666L24.124285714285715,101.09918963412443L25.052857142857146,-207.72926346460986L25.98142857142857,163.16666666666666L26.91,163.16666666666666L27.838571428571427,-33.31712271769845L28.767142857142858,-82.97574605544412L29.695714285714285,163.16666666666666L30.624285714285715,45.832980687419564L31.552857142857142,37.441661099592835L32.48142857142857,-22.677567958831816L35.26714285714286,-244.50625266631448L36.19571428571428,163.16666666666666L37.12428571428572,163.16666666666666L38.05285714285714,163.16666666666666L38.98142857142857,-31.786993503570585L39.91,163.16666666666666L40.838571428571434,33.07922570904097L41.76714285714286,163.16666666666666L42.69571428571428,163.16666666666666L43.62428571428571,163.16666666666666L44.55285714285714,16.704128821690887L45.48142857142857,163.16666666666666L46.41,163.16666666666666L47.33857142857143,163.16666666666666L48.26714285714286,-44.908736755450605L49.19571428571429,163.16666666666666L50.12428571428571,163.16666666666666L51.05285714285714,-27.093869308630644L51.98142857142857,37.02444857855639L52.91,-2.130135878920555L53.83857142857143,163.16666666666666L54.76714285714286,163.16666666666666L55.69571428571429,163.16666666666666L56.62428571428571,163.16666666666666L57.55285714285714,163.16666666666666L58.48142857142857,41.420050104459136L59.410000000000004,163.16666666666666L60.33857142857143,163.16666666666666L61.26714285714286,163.16666666666666L62.19571428571429,163.16666666666666L63.12428571428572,163.16666666666666L64.05285714285715,-84.41140538454061L64.98142857142857,126.01934070636828L65.91,163.16666666666666L66.83857142857143,163.16666666666666L67.76714285714286,-11.774828145901381L68.69571428571429,163.16666666666666L69.62428571428572,163.16666666666666L70.55285714285714,163.16666666666666L71.48142857142857,163.16666666666666L72.41000000000001,-12.927298853794753L73.33857142857143,163.16666666666666L74.26714285714286,163.16666666666666L75.19571428571429,163.16666666666666L76.1242857142857,119.60225162655115L77.05285714285715,-27.24266932408017L77.98142857142857,163.16666666666666L78.91,163.16666666666666L79.83857142857143,163.16666666666666L80.76714285714286,163.16666666666666L81.69571428571429,102.96904793878396L82.62428571428572,163.16666666666666L83.55285714285714,163.16666666666666L84.48142857142858,-27.325910687446623L85.41,46.44653761386871L86.33857142857143,163.16666666666666L87.26714285714286,147.0475505099942L88.19571428571427,-15.475510170062421L89.12428571428572,163.16666666666666L90.05285714285715,163.16666666666666L90.98142857142857,163.16666666666666L91.91,21.579550718267768L92.83857142857144,163.16666666666666L93.76714285714286,134.26712641119957L94.69571428571429,163.16666666666666L95.6242857142857,163.16666666666666L96.55285714285714,163.16666666666666L97.48142857142858,163.16666666666666L98.41,19.616305594642967L99.33857142857143,163.16666666666666L100.26714285714286,163.16666666666666L101.19571428571429,163.16666666666666L102.12428571428572,163.16666666666666L103.05285714285714,163.16666666666666L103.98142857142857,163.16666666666666L104.91000000000001,163.16666666666666L105.83857142857143,163.16666666666666L106.76714285714286,-58.955727875232725L107.69571428571429,163.16666666666666L108.6242857142857,163.16666666666666L109.55285714285715,163.16666666666666L110.48142857142857,163.16666666666666L111.41,163.16666666666666L112.33857142857143,163.16666666666666L113.26714285714286,163.16666666666666L114.19571428571429,163.16666666666666L115.12428571428572,163.16666666666666L116.05285714285714,18.779217094182968L116.98142857142858,-59.69765023390454L117.91,46.601261337598174L118.83857142857143,163.16666666666666L119.76714285714286,163.16666666666666L120.69571428571427,163.16666666666666L121.62428571428572,163.16666666666666L122.55285714285715,19.880032181739807L123.48142857142857,-37.50673170884454L124.41,163.16666666666666L125.33857142857144,163.16666666666666L126.26714285714286,32.83177826801935L127.19571428571429,-43.89363861083987L128.12428571428572,57.65261328717074L129.05285714285714,-29.0925019582113L129.98142857142858,163.16666666666666L130.91,163.16666666666666L131.83857142857144,163.16666666666666L132.76714285714286,163.16666666666666L133.6957142857143,163.16666666666666L134.62428571428572,163.16666666666666L135.55285714285714,53.93797297279039L136.48142857142858,163.16666666666666L137.41,163.16666666666666L138.3385714285714,163.16666666666666L139.26714285714286,31.820150355497987L140.1957142857143,47.251432528098434L141.12428571428572,147.55716763064265L142.05285714285714,163.16666666666666L142.98142857142858,163.16666666666666L143.91,163.16666666666666L144.8385714285714,65.64892320831618L145.76714285714286,163.16666666666666L146.69571428571427,163.16666666666666L147.62428571428572,163.16666666666666L148.55285714285716,163.16666666666666L149.48142857142858,163.16666666666666L150.41,64.74080546696982L151.33857142857144,163.16666666666666L152.26714285714286,23.975071822603553L153.19571428571427,23.368145912885666L154.1242857142857,163.16666666666666L155.05285714285714,-21.355674773454695L155.98142857142858,163.16666666666666L156.91,-8.829628909627615L157.83857142857144,125.62414039795597L158.76714285714286,163.16666666666666L159.69571428571427,163.16666666666666L160.62428571428572,42.39594788849354L161.55285714285714,13.265570888916642L162.48142857142855,101.59902462363242L163.41,47.18895729879537L164.33857142857144,163.16666666666666L165.26714285714286,163.16666666666666L166.1957142857143,163.16666666666666L167.12428571428572,47.7892079850038L168.05285714285714,65.119779124856L168.98142857142858,163.16666666666666L169.91,163.16666666666666L170.8385714285714,163.16666666666666L171.76714285714286,163.16666666666666L172.6957142857143,-43.5532906254133L173.62428571428572,163.16666666666666L174.55285714285714,163.16666666666666L175.48142857142858,163.16666666666666L176.41,163.16666666666666L177.3385714285714,163.16666666666666L178.26714285714286,163.16666666666666L179.19571428571427,51.62648895382881L180.12428571428572,163.16666666666666L181.05285714285716,163.16666666666666L181.98142857142858,163.16666666666666L182.91,163.16666666666666L183.83857142857144,18.60990513364473L184.76714285714286,163.16666666666666L185.69571428571427,163.16666666666666L186.6242857142857,163.16666666666666L187.55285714285714,163.16666666666666L188.48142857142858,163.16666666666666L189.41,163.16666666666666L190.33857142857144,163.16666666666666L191.26714285714286,163.16666666666666L192.19571428571427,29.374808212121337L193.12428571428572,45.477215588092804L194.05285714285714,163.16666666666666L194.98142857142855,163.16666666666666L195.91,163.16666666666666L196.83857142857144,163.16666666666666L197.76714285714286,163.16666666666666L198.6957142857143,163.16666666666666L199.62428571428572,163.16666666666666L200.55285714285714,163.16666666666666L201.48142857142858,163.16666666666666L202.41,163.16666666666666L203.3385714285714,163.16666666666666L204.26714285714286,163.16666666666666L205.1957142857143,163.16666666666666L206.12428571428572,163.16666666666666L207.05285714285714,163.16666666666666L207.98142857142858,163.16666666666666L208.91,-8.509947593013464L209.8385714285714,163.16666666666666L210.76714285714286,-7.910956799984007L211.69571428571427,51.795038347442954L212.62428571428572,163.16666666666666L213.55285714285716,163.16666666666666L214.48142857142858,23.136723428964615L215.41,163.16666666666666L216.33857142857144,163.16666666666666L217.26714285714286,163.16666666666666L218.19571428571427,163.16666666666666L219.1242857142857,163.16666666666666L220.05285714285714,163.16666666666666L220.98142857142858,163.16666666666666L221.91,163.16666666666666L222.83857142857144,163.16666666666666L223.76714285714286,163.16666666666666L224.69571428571427,163.16666666666666L225.62428571428572,163.16666666666666L226.55285714285714,163.16666666666666L227.48142857142855,163.16666666666666L228.41,163.16666666666666L229.33857142857144,163.16666666666666L230.26714285714286,20.44811138510704L231.1957142857143,163.16666666666666L232.12428571428572,163.16666666666666L233.05285714285714,156.39045277237892L233.98142857142858,163.16666666666666L234.91,163.16666666666666L235.8385714285714,163.16666666666666L236.76714285714286,35.822897295157105L237.6957142857143,163.16666666666666L238.62428571428572,163.16666666666666L239.55285714285714,43.82644607623419L240.48142857142858,31.160739948352187L241.41,163.16666666666666L242.3385714285714,163.16666666666666L243.26714285714286,163.16666666666666L244.19571428571427,163.16666666666666L245.12428571428572,163.16666666666666L246.05285714285716,163.16666666666666L246.98142857142858,163.16666666666666L247.91,163.16666666666666" style="fill: none;" fill="none"></path></g></g></g></g></g></g><g transform="translate(70, 178)" clip-path="url(#clip_1)"><clipPath id="clip_1"><rect width="260" height="21"></rect></clipPath><g><g><line x1="0" y1="0" x2="0" y2="5" style="visibility: inherit;" fill="rgb(0, 0, 0)" stroke="rgb(204, 204, 204)" stroke-width="1px"></line><line x1="18.57142857142857" y1="0" x2="18.57142857142857" y2="5" style="visibility: inherit;" fill="rgb(0, 0, 0)" stroke="rgb(204, 204, 204)" stroke-width="1px"></line><line x1="37.14285714285714" y1="0" x2="37.14285714285714" y2="5" style="visibility: inherit;" fill="rgb(0, 0, 0)" stroke="rgb(204, 204, 204)" stroke-width="1px"></line><line x1="55.71428571428571" y1="0" x2="55.71428571428571" y2="5" style="visibility: inherit;" fill="rgb(0, 0, 0)" stroke="rgb(204, 204, 204)" stroke-width="1px"></line><line x1="74.28571428571428" y1="0" x2="74.28571428571428" y2="5" style="visibility: inherit;" fill="rgb(0, 0, 0)" stroke="rgb(204, 204, 204)" stroke-width="1px"></line><line x1="92.85714285714286" y1="0" x2="92.85714285714286" y2="5" style="visibility: inherit;" fill="rgb(0, 0, 0)" stroke="rgb(204, 204, 204)" stroke-width="1px"></line><line x1="111.42857142857142" y1="0" x2="111.42857142857142" y2="5" style="visibility: inherit;" fill="rgb(0, 0, 0)" stroke="rgb(204, 204, 204)" stroke-width="1px"></line><line x1="130" y1="0" x2="130" y2="5" style="visibility: inherit;" fill="rgb(0, 0, 0)" stroke="rgb(204, 204, 204)" stroke-width="1px"></line><line x1="148.57142857142856" y1="0" x2="148.57142857142856" y2="5" style="visibility: inherit;" fill="rgb(0, 0, 0)" stroke="rgb(204, 204, 204)" stroke-width="1px"></line><line x1="167.14285714285717" y1="0" x2="167.14285714285717" y2="5" style="visibility: inherit;" fill="rgb(0, 0, 0)" stroke="rgb(204, 204, 204)" stroke-width="1px"></line><line x1="185.71428571428572" y1="0" x2="185.71428571428572" y2="5" style="visibility: inherit;" fill="rgb(0, 0, 0)" stroke="rgb(204, 204, 204)" stroke-width="1px"></line><line x1="204.28571428571428" y1="0" x2="204.28571428571428" y2="5" style="visibility: inherit;" fill="rgb(0, 0, 0)" stroke="rgb(204, 204, 204)" stroke-width="1px"></line><line x1="222.85714285714283" y1="0" x2="222.85714285714283" y2="5" style="visibility: inherit;" fill="rgb(0, 0, 0)" stroke="rgb(204, 204, 204)" stroke-width="1px"></line><line x1="241.42857142857144" y1="0" x2="241.42857142857144" y2="5" style="visibility: inherit;" fill="rgb(0, 0, 0)" stroke="rgb(204, 204, 204)" stroke-width="1px"></line><line x1="260" y1="0" x2="260" y2="5" style="visibility: inherit;" fill="rgb(0, 0, 0)" stroke="rgb(204, 204, 204)" stroke-width="1px"></line></g><g transform="translate(0, 8)"><text x="0" y="0" dx="0em" dy="0.95em" style="text-anchor: middle; visibility: hidden; font-family: &quot;Helvetica Neue&quot;, sans-serif; font-size: 12px; font-weight: 200;" fill="rgb(50, 49, 63)" stroke="none" stroke-width="1px">3k</text><text x="18.57142857142857" y="0" dx="0em" dy="0.95em" style="text-anchor: middle; visibility: inherit; font-family: &quot;Helvetica Neue&quot;, sans-serif; font-size: 12px; font-weight: 200;" fill="rgb(50, 49, 63)" stroke="none" stroke-width="1px">4k</text><text x="37.14285714285714" y="0" dx="0em" dy="0.95em" style="text-anchor: middle; visibility: hidden; font-family: &quot;Helvetica Neue&quot;, sans-serif; font-size: 12px; font-weight: 200;" fill="rgb(50, 49, 63)" stroke="none" stroke-width="1px">5k</text><text x="55.71428571428571" y="0" dx="0em" dy="0.95em" style="text-anchor: middle; visibility: inherit; font-family: &quot;Helvetica Neue&quot;, sans-serif; font-size: 12px; font-weight: 200;" fill="rgb(50, 49, 63)" stroke="none" stroke-width="1px">6k</text><text x="74.28571428571428" y="0" dx="0em" dy="0.95em" style="text-anchor: middle; visibility: hidden; font-family: &quot;Helvetica Neue&quot;, sans-serif; font-size: 12px; font-weight: 200;" fill="rgb(50, 49, 63)" stroke="none" stroke-width="1px">7k</text><text x="92.85714285714286" y="0" dx="0em" dy="0.95em" style="text-anchor: middle; visibility: inherit; font-family: &quot;Helvetica Neue&quot;, sans-serif; font-size: 12px; font-weight: 200;" fill="rgb(50, 49, 63)" stroke="none" stroke-width="1px">8k</text><text x="111.42857142857142" y="0" dx="0em" dy="0.95em" style="text-anchor: middle; visibility: hidden; font-family: &quot;Helvetica Neue&quot;, sans-serif; font-size: 12px; font-weight: 200;" fill="rgb(50, 49, 63)" stroke="none" stroke-width="1px">9k</text><text x="130" y="0" dx="0em" dy="0.95em" style="text-anchor: middle; visibility: inherit; font-family: &quot;Helvetica Neue&quot;, sans-serif; font-size: 12px; font-weight: 200;" fill="rgb(50, 49, 63)" stroke="none" stroke-width="1px">10k</text><text x="148.57142857142856" y="0" dx="0em" dy="0.95em" style="text-anchor: middle; visibility: hidden; font-family: &quot;Helvetica Neue&quot;, sans-serif; font-size: 12px; font-weight: 200;" fill="rgb(50, 49, 63)" stroke="none" stroke-width="1px">11k</text><text x="167.14285714285717" y="0" dx="0em" dy="0.95em" style="text-anchor: middle; visibility: inherit; font-family: &quot;Helvetica Neue&quot;, sans-serif; font-size: 12px; font-weight: 200;" fill="rgb(50, 49, 63)" stroke="none" stroke-width="1px">12k</text><text x="185.71428571428572" y="0" dx="0em" dy="0.95em" style="text-anchor: middle; visibility: hidden; font-family: &quot;Helvetica Neue&quot;, sans-serif; font-size: 12px; font-weight: 200;" fill="rgb(50, 49, 63)" stroke="none" stroke-width="1px">13k</text><text x="204.28571428571428" y="0" dx="0em" dy="0.95em" style="text-anchor: middle; visibility: inherit; font-family: &quot;Helvetica Neue&quot;, sans-serif; font-size: 12px; font-weight: 200;" fill="rgb(50, 49, 63)" stroke="none" stroke-width="1px">14k</text><text x="222.85714285714283" y="0" dx="0em" dy="0.95em" style="text-anchor: middle; visibility: hidden; font-family: &quot;Helvetica Neue&quot;, sans-serif; font-size: 12px; font-weight: 200;" fill="rgb(50, 49, 63)" stroke="none" stroke-width="1px">15k</text><text x="241.42857142857144" y="0" dx="0em" dy="0.95em" style="text-anchor: middle; visibility: inherit; font-family: &quot;Helvetica Neue&quot;, sans-serif; font-size: 12px; font-weight: 200;" fill="rgb(50, 49, 63)" stroke="none" stroke-width="1px">16k</text><text x="260" y="0" dx="0em" dy="0.95em" style="text-anchor: middle; visibility: hidden; font-family: &quot;Helvetica Neue&quot;, sans-serif; font-size: 12px; font-weight: 200;" fill="rgb(50, 49, 63)" stroke="none" stroke-width="1px">17k</text></g><line x1="0" y1="0" x2="260" y2="0" fill="rgb(0, 0, 0)" stroke="rgb(204, 204, 204)" stroke-width="1px"></line></g></g></g></g></svg>