<svg viewBox="0 0 330.0000305175781 200.00001525878906" xmlns="http://www.w3.org/2000/svg"><g><g><g><g><g><line x1="70" y1="178" x2="65" y2="178" style="visibility: inherit;" fill="rgb(0, 0, 0)" stroke="rgb(204, 204, 204)" stroke-width="1px"></line><line x1="70" y1="158.22222222222223" x2="65" y2="158.22222222222223" style="visibility: inherit;" fill="rgb(0, 0, 0)" stroke="rgb(204, 204, 204)" stroke-width="1px"></line><line x1="70" y1="138.44444444444446" x2="65" y2="138.44444444444446" style="visibility: inherit;" fill="rgb(0, 0, 0)" stroke="rgb(204, 204, 204)" stroke-width="1px"></line><line x1="70" y1="118.66666666666667" x2="65" y2="118.66666666666667" style="visibility: inherit;" fill="rgb(0, 0, 0)" stroke="rgb(204, 204, 204)" stroke-width="1px"></line><line x1="70" y1="98.88888888888889" x2="65" y2="98.88888888888889" style="visibility: inherit;" fill="rgb(0, 0, 0)" stroke="rgb(204, 204, 204)" stroke-width="1px"></line><line x1="70" y1="79.1111111111111" x2="65" y2="79.1111111111111" style="visibility: inherit;" fill="rgb(0, 0, 0)" stroke="rgb(204, 204, 204)" stroke-width="1px"></line><line x1="70" y1="59.333333333333314" x2="65" y2="59.333333333333314" style="visibility: inherit;" fill="rgb(0, 0, 0)" stroke="rgb(204, 204, 204)" stroke-width="1px"></line><line x1="70" y1="39.55555555555557" x2="65" y2="39.55555555555557" style="visibility: inherit;" fill="rgb(0, 0, 0)" stroke="rgb(204, 204, 204)" stroke-width="1px"></line><line x1="70" y1="19.77777777777777" x2="65" y2="19.77777777777777" style="visibility: inherit;" fill="rgb(0, 0, 0)" stroke="rgb(204, 204, 204)" stroke-width="1px"></line><line x1="70" y1="0" x2="65" y2="0" style="visibility: inherit;" fill="rgb(0, 0, 0)" stroke="rgb(204, 204, 204)" stroke-width="1px"></line></g><g transform="translate(60, 0)"><text x="0" y="178" dx="0em" dy="0.3em" style="text-anchor: end; visibility: hidden; font-family: &quot;Helvetica Neue&quot;, sans-serif; font-size: 12px; font-weight: 200;" fill="rgb(50, 49, 63)" stroke="none" stroke-width="1px">-0.02</text><text x="0" y="158.22222222222223" dx="0em" dy="0.3em" style="text-anchor: end; visibility: inherit; font-family: &quot;Helvetica Neue&quot;, sans-serif; font-size: 12px; font-weight: 200;" fill="rgb(50, 49, 63)" stroke="none" stroke-width="1px">0</text><text x="0" y="138.44444444444446" dx="0em" dy="0.3em" style="text-anchor: end; visibility: hidden; font-family: &quot;Helvetica Neue&quot;, sans-serif; font-size: 12px; font-weight: 200;" fill="rgb(50, 49, 63)" stroke="none" stroke-width="1px">0.02</text><text x="0" y="118.66666666666667" dx="0em" dy="0.3em" style="text-anchor: end; visibility: inherit; font-family: &quot;Helvetica Neue&quot;, sans-serif; font-size: 12px; font-weight: 200;" fill="rgb(50, 49, 63)" stroke="none" stroke-width="1px">0.04</text><text x="0" y="98.88888888888889" dx="0em" dy="0.3em" style="text-anchor: end; visibility: hidden; font-family: &quot;Helvetica Neue&quot;, sans-serif; font-size: 12px; font-weight: 200;" fill="rgb(50, 49, 63)" stroke="none" stroke-width="1px">0.06</text><text x="0" y="79.1111111111111" dx="0em" dy="0.3em" style="text-anchor: end; visibility: inherit; font-family: &quot;Helvetica Neue&quot;, sans-serif; font-size: 12px; font-weight: 200;" fill="rgb(50, 49, 63)" stroke="none" stroke-width="1px">0.08</text><text x="0" y="59.333333333333314" dx="0em" dy="0.3em" style="text-anchor: end; visibility: hidden; font-family: &quot;Helvetica Neue&quot;, sans-serif; font-size: 12px; font-weight: 200;" fill="rgb(50, 49, 63)" stroke="none" stroke-width="1px">0.1</text><text x="0" y="39.55555555555557" dx="0em" dy="0.3em" style="text-anchor: end; visibility: inherit; font-family: &quot;Helvetica Neue&quot;, sans-serif; font-size: 12px; font-weight: 200;" fill="rgb(50, 49, 63)" stroke="none" stroke-width="1px">0.12</text><text x="0" y="19.77777777777777" dx="0em" dy="0.3em" style="text-anchor: end; visibility: hidden; font-family: &quot;Helvetica Neue&quot;, sans-serif; font-size: 12px; font-weight: 200;" fill="rgb(50, 49, 63)" stroke="none" stroke-width="1px">0.14</text><text x="0" y="0" dx="0em" dy="0.3em" style="text-anchor: end; visibility: hidden; font-family: &quot;Helvetica Neue&quot;, sans-serif; font-size: 12px; font-weight: 200;" fill="rgb(50, 49, 63)" stroke="none" stroke-width="1px">0.16</text></g><line x1="70" y1="0" x2="70" y2="178" fill="rgb(0, 0, 0)" stroke="rgb(204, 204, 204)" stroke-width="1px"></line></g></g><g transform="translate(70, 0)" clip-path="url(#clip_0)"><clipPath id="clip_0"><rect width="260" height="177"></rect></clipPath><g><g><g><line x1="0" y1="0" x2="0" y2="178" fill="rgb(0, 0, 0)" stroke="rgb(60, 60, 60)" stroke-width="1px" opacity="0.25"></line><line x1="18.57142857142857" y1="0" x2="18.57142857142857" y2="178" fill="rgb(0, 0, 0)" stroke="rgb(60, 60, 60)" stroke-width="1px" opacity="0.25"></line><line x1="37.14285714285714" y1="0" x2="37.14285714285714" y2="178" fill="rgb(0, 0, 0)" stroke="rgb(60, 60, 60)" stroke-width="1px" opacity="0.25"></line><line x1="55.71428571428571" y1="0" x2="55.71428571428571" y2="178" fill="rgb(0, 0, 0)" stroke="rgb(60, 60, 60)" stroke-width="1px" opacity="0.25"></line><line x1="74.28571428571428" y1="0" x2="74.28571428571428" y2="178" fill="rgb(0, 0, 0)" stroke="rgb(60, 60, 60)" stroke-width="1px" opacity="0.25"></line><line x1="92.85714285714286" y1="0" x2="92.85714285714286" y2="178" fill="rgb(0, 0, 0)" stroke="rgb(60, 60, 60)" stroke-width="1px" opacity="0.25"></line><line x1="111.42857142857142" y1="0" x2="111.42857142857142" y2="178" fill="rgb(0, 0, 0)" stroke="rgb(60, 60, 60)" stroke-width="1px" opacity="0.25"></line><line x1="130" y1="0" x2="130" y2="178" fill="rgb(0, 0, 0)" stroke="rgb(60, 60, 60)" stroke-width="1px" opacity="0.25"></line><line x1="148.57142857142856" y1="0" x2="148.57142857142856" y2="178" fill="rgb(0, 0, 0)" stroke="rgb(60, 60, 60)" stroke-width="1px" opacity="0.25"></line><line x1="167.14285714285717" y1="0" x2="167.14285714285717" y2="178" fill="rgb(0, 0, 0)" stroke="rgb(60, 60, 60)" stroke-width="1px" opacity="0.25"></line><line x1="185.71428571428572" y1="0" x2="185.71428571428572" y2="178" fill="rgb(0, 0, 0)" stroke="rgb(60, 60, 60)" stroke-width="1px" opacity="0.25"></line><line x1="204.28571428571428" y1="0" x2="204.28571428571428" y2="178" fill="rgb(0, 0, 0)" stroke="rgb(60, 60, 60)" stroke-width="1px" opacity="0.25"></line><line x1="222.85714285714283" y1="0" x2="222.85714285714283" y2="178" fill="rgb(0, 0, 0)" stroke="rgb(60, 60, 60)" stroke-width="1px" opacity="0.25"></line><line x1="241.42857142857144" y1="0" x2="241.42857142857144" y2="178" fill="rgb(0, 0, 0)" stroke="rgb(60, 60, 60)" stroke-width="1px" opacity="0.25"></line><line x1="260" y1="0" x2="260" y2="178" fill="rgb(0, 0, 0)" stroke="rgb(60, 60, 60)" stroke-width="1px" opacity="0.25"></line></g><g><line x1="0" y1="178" x2="260" y2="178" fill="rgb(0, 0, 0)" stroke="rgb(60, 60, 60)" stroke-width="1px" opacity="0.25"></line><line x1="0" y1="158.22222222222223" x2="260" y2="158.22222222222223" fill="rgb(0, 0, 0)" stroke="rgb(60, 60, 60)" stroke-width="1px" opacity="0.25"></line><line x1="0" y1="138.44444444444446" x2="260" y2="138.44444444444446" fill="rgb(0, 0, 0)" stroke="rgb(60, 60, 60)" stroke-width="1px" opacity="0.25"></line><line x1="0" y1="118.66666666666667" x2="260" y2="118.66666666666667" fill="rgb(0, 0, 0)" stroke="rgb(60, 60, 60)" stroke-width="1px" opacity="0.25"></line><line x1="0" y1="98.88888888888889" x2="260" y2="98.88888888888889" fill="rgb(0, 0, 0)" stroke="rgb(60, 60, 60)" stroke-width="1px" opacity="0.25"></line><line x1="0" y1="79.1111111111111" x2="260" y2="79.1111111111111" fill="rgb(0, 0, 0)" stroke="rgb(60, 60, 60)" stroke-width="1px" opacity="0.25"></line><line x1="0" y1="59.333333333333314" x2="260" y2="59.333333333333314" fill="rgb(0, 0, 0)" stroke="rgb(60, 60, 60)" stroke-width="1px" opacity="0.25"></line><line x1="0" y1="39.55555555555557" x2="260" y2="39.55555555555557" fill="rgb(0, 0, 0)" stroke="rgb(60, 60, 60)" stroke-width="1px" opacity="0.25"></line><line x1="0" y1="19.77777777777777" x2="260" y2="19.77777777777777" fill="rgb(0, 0, 0)" stroke="rgb(60, 60, 60)" stroke-width="1px" opacity="0.25"></line><line x1="0" y1="0" x2="260" y2="0" fill="rgb(0, 0, 0)" stroke="rgb(60, 60, 60)" stroke-width="1px" opacity="0.25"></line></g></g></g><g><g><line x1="0" y1="158.22222222222223" x2="260" y2="158.22222222222223" fill="rgb(0, 0, 0)" stroke="rgb(153, 153, 153)" stroke-width="1.5px"></line></g></g><g><g><line x1="-55.71428571428571" y1="0" x2="-55.71428571428571" y2="178" fill="rgb(0, 0, 0)" stroke="rgb(153, 153, 153)" stroke-width="1.5px"></line></g></g><g><g><g><g><g><path stroke="rgb(255, 112, 67)" stroke-width="2px" d="M6.481428571428571,158.22222222222223L7.41,63.251430585219694L8.338571428571429,26.682609715738238L9.267142857142858,35.09040525817932L10.195714285714287,68.29182342668632L11.124285714285715,72.78384649655132L12.052857142857142,91.64655503611229L12.981428571428571,84.02338406529357L13.91,86.64900774611107L14.838571428571429,80.9276754549396L15.767142857142858,70.88605122422447L16.695714285714285,86.15891599549242L17.624285714285712,90.02833799717887L18.552857142857142,101.42907010173029L19.48142857142857,110.76343946646294L20.41,104.83155247137574L21.338571428571427,113.37965280902952L22.267142857142858,111.62922479411249L23.19571428571429,118.95209316632986L24.124285714285715,87.81234517058884L25.052857142857146,35.98917701808119L25.98142857142857,54.85237427018011L26.91,70.73593089071903L27.838571428571427,64.97958596350517L28.767142857142858,48.55599333527272L29.695714285714285,65.2499624183897L30.624285714285715,71.1363052149167L31.552857142857142,66.7053096059048L32.48142857142857,50.16168825087489L33.410000000000004,34.406964351528075L34.33857142857143,18.046833405765994L35.26714285714286,-79.68983445687036L37.12428571428572,-13.405206893003339L38.05285714285714,12.42636824276775L38.98142857142857,12.823936486319127L39.91,34.68716219026527L40.838571428571434,45.082835602254676L41.76714285714286,62.08379130937705L42.69571428571428,76.52625287436442L43.62428571428571,88.7963166088149L44.55285714285714,90.2889678880078L45.48142857142857,100.48836601054929L46.41,109.15524109797515L47.33857142857143,116.52019759228273L48.26714285714286,98.22207419504868L49.19571428571429,107.2264329285491L50.12428571428571,114.87893397228555L51.05285714285714,87.38613754490976L51.98142857142857,89.08955134718526L52.91,76.9837027771503L53.83857142857143,89.17208522898589L54.76714285714286,99.53148742325972L55.69571428571429,108.33645705119622L56.62428571428571,115.82030394968464L57.55285714285714,122.18130124390878L58.48142857142857,122.52556494686817L59.410000000000004,127.88049510842463L60.33857142857143,132.43206597679762L61.26714285714286,136.3008146850145L62.19571428571429,139.5891885710903L63.12428571428572,142.38426120770478L64.05285714285715,127.1192063374337L64.98142857142857,125.85707603379113L65.91,130.71197339459792L66.83857142857143,134.83860134298885L67.76714285714286,127.9344329827086L68.69571428571429,132.47767345492537L69.62428571428572,136.33940785209444L70.55285714285714,139.6218676367468L71.48142857142857,142.41194801151508L72.41000000000001,137.63152611497878L73.33857142857143,140.72015227543997L74.26714285714286,143.34547847773192L75.19571428571429,145.57700139005667L76.1242857142857,135.52221973054657L77.05285714285715,117.9260667695425L77.98142857142857,123.97050896876803L78.91,129.10827959852853L79.83857142857143,133.4753808482329L80.76714285714286,137.18741417539465L81.69571428571429,123.51576160948346L82.62428571428572,128.7217379170038L83.55285714285714,133.14681577606206L84.48142857142858,123.96848080721938L85.41,117.46205666261048L86.33857142857143,123.57608592013392L87.26714285714286,118.72179994794517L88.19571428571427,114.63802991907369L89.12428571428572,121.17566166939635L90.05285714285715,126.73264785107433L90.98142857142857,131.45608552309616L91.91,123.18321475852946L92.83857142857144,128.43906709713522L93.76714285714286,114.40027614014367L94.69571428571429,120.97356915399442L95.6242857142857,126.56086791009045L96.55285714285714,131.31007163192038L97.48142857142858,135.34689463591047L98.41,130.9129703768527L99.33857142857143,135.009358458246L100.26714285714286,138.49128824290716L101.19571428571429,141.45092849880118L102.12428571428572,143.9666226721895L103.05285714285714,146.10496268769168L103.98142857142857,147.92255167783682L104.91000000000001,149.46750230281975L105.83857142857143,150.78071032203252L106.76714285714286,137.89623464368728L107.69571428571429,140.94513283297545L108.6242857142857,143.5366962792994L109.55285714285715,145.7395251981473L110.48142857142857,147.61192977156188L111.41,149.20347365346885L112.33857142857143,150.5562859491193L113.26714285714286,151.70617639755355L114.19571428571429,152.68358327665007L115.12428571428572,153.51437912238467L116.05285714285714,146.56216777695565L116.98142857142858,136.32581430812309L117.91,130.11146999911318L118.83857142857143,134.32808284290888L119.76714285714286,137.91220375726883L120.69571428571427,140.95870653240382L121.62428571428572,143.5482338897723L122.55285714285715,132.26465564491764L123.48142857142857,121.83888959689264L124.41,127.29638949573422L125.33857142857144,131.9352644083504L126.26714285714286,124.66556933563106L127.19571428571429,113.20674394548446L128.12428571428572,108.70632865195421L129.05285714285714,101.87400407401984L129.98142857142858,110.32623679919534L130.91,117.51063461477726L131.83857142857144,123.61737275743138L132.76714285714286,128.80810017826076L133.6957142857143,133.2202184856575L134.62428571428572,136.97051904672205L135.55285714285714,131.7556385518984L136.48142857142858,135.72562610289043L137.41,139.1001155211106L138.3385714285714,141.96843152650882L139.26714285714286,138.1016260891724L140.1957142857143,131.12794698467255L141.12428571428572,123.5407022473612L142.05285714285714,128.7429302438095L142.98142857142858,133.16482404072977L143.91,136.92343376806804L144.8385714285714,97.3028600674721L145.76714285714286,106.44076439088558L146.69571428571427,114.20798306573127L147.62428571428572,120.8101189393098L148.55285714285716,126.42193443182248L149.48142857142858,131.1919776004372L150.41,125.89987186153982L151.33857142857144,130.7482244156824L152.26714285714286,124.70978641859134L153.19571428571427,118.0763249456358L154.1242857142857,124.09820953715445L155.05285714285714,111.23721848573989L155.98142857142858,118.28496904623817L156.91,111.61307909471158L157.83857142857144,104.53843616220469L158.76714285714286,112.59100407122553L159.69571428571427,119.43568679388817L160.62428571428572,117.73744611384183L161.55285714285714,106.39640528533725L162.48142857142855,96.79803516652831L163.41,97.4331947940957L164.33857142857144,106.55154890832245L165.26714285714286,114.30214990541305L166.1957142857143,120.89016075293847L167.12428571428572,106.82017506118409L168.05285714285714,104.27914577685107L168.98142857142858,112.3706072436598L169.91,119.24834949044637L170.8385714285714,125.09443040021435L171.76714285714286,130.0635991735167L172.6957142857143,125.14121854394284L173.62428571428572,130.1033690956856L174.55285714285714,134.32119706466668L175.48142857142858,137.90635083830045L176.41,140.95373154588904L177.3385714285714,143.54400514733925L178.26714285714286,145.74573770857185L179.19571428571427,139.40464532615582L180.12428571428572,142.22728186056594L181.05285714285716,144.62652291481447L181.98142857142858,146.66587781092574L182.91,148.39932947262025L183.83857142857144,135.69471574543195L184.76714285714286,139.07384171695057L185.69571428571427,141.94609879274137L186.6242857142857,144.38751730716353L187.55285714285714,146.46272304442238L188.48142857142858,148.22664792109236L189.41,149.72598406626187L190.33857142857144,151.00041978965592L191.26714285714286,152.08369015454088L192.19571428571427,144.1479154800773L193.12428571428572,138.44314782784284L194.05285714285714,141.41000898699974L194.98142857142855,143.93184097228314L195.91,146.075398159774L196.83857142857144,147.89742176914126L197.76714285714286,149.4461418371034L198.6957142857143,150.76255389487122L199.62428571428572,151.88150414397387L200.55285714285714,152.83261185571112L201.48142857142858,153.6410534106878L202.41,154.32822873241795L203.3385714285714,154.9123277558886L204.26714285714286,155.40881192583865L205.1957142857143,155.83082347029617L206.12428571428572,156.1895332830851L207.05285714285714,156.49443662395566L207.98142857142858,156.75360446369564L208.91,137.1423805586152L209.8385714285714,140.30435680815626L210.76714285714286,125.45434014696568L211.69571428571427,123.1793916582454L212.62428571428572,128.43581624284192L213.55285714285716,132.90377713974897L214.48142857142858,130.81633641050354L215.41,134.92721928226135L216.33857142857144,138.42146972325548L217.26714285714286,141.39158259810048L218.19571428571427,143.91617854171875L219.1242857142857,146.06208509379428L220.05285714285714,147.88610566305846L220.98142857142858,149.43652314693304L221.91,150.7543780082264L222.83857142857144,151.87455464032578L223.76714285714286,152.82670477761025L224.69571428571427,153.63603239430205L225.62428571428572,154.32396086849008L226.55285714285714,154.9087000715499L227.48142857142855,155.40572839415074L228.41,155.82820246836147L229.33857142857144,156.18730543144056L230.26714285714286,150.50500671341405L231.1957142857143,151.66258903973525L232.12428571428572,152.6465340171083L233.05285714285714,151.31374919289107L233.98142857142858,152.35002014729076L234.91,153.23085045853048L235.8385714285714,153.97955622308424L236.76714285714286,149.30494550022507L237.6957142857143,150.64253700852464L238.62428571428572,151.77948979057928L239.55285714285714,141.6437541175917L240.48142857142858,134.97056602037745L241.41,138.45831445065417L242.3385714285714,141.42290061638937L243.26714285714286,143.9427988572643L244.19571428571427,146.084712362008L245.12428571428572,147.90533884104013L246.05285714285716,149.45287134821746L246.98142857142858,150.76827397931817L247.91,151.88636621575378" style="fill: none;" fill="none"></path></g></g></g></g><g opacity="0.2"><g><g><g><path stroke="rgb(255, 112, 67)" stroke-width="2px" d="M6.481428571428571,158.22222222222223L7.41,-17.473742306232452L8.338571428571429,-30.821861101521364L9.267142857142858,53.475101186169525L10.195714285714287,158.22222222222223L11.124285714285715,86.9442150592804L12.052857142857142,158.22222222222223L12.981428571428571,54.673694299326996L13.91,97.47328234381145L14.838571428571429,56.01601838403276L15.767142857142858,25.186167054706146L16.695714285714285,158.22222222222223L17.624285714285712,108.83616682721508L18.552857142857142,158.22222222222223L19.48142857142857,158.22222222222223L20.41,74.15385318464702L21.338571428571427,158.22222222222223L22.267142857142858,102.3361605670717L23.19571428571429,158.22222222222223L24.124285714285715,-80.5998132692443L25.052857142857146,-246.29313956366644L25.98142857142857,158.22222222222223L26.91,158.22222222222223L27.838571428571427,33.13674137989682L28.767142857142858,-42.628032737308075L29.695714285714285,158.22222222222223L30.624285714285715,104.00464594529734L31.552857142857142,41.90832398997415L32.48142857142857,-42.59537866380478L35.26714285714286,-629.9386581844755L36.19571428571428,158.22222222222223L37.12428571428572,158.22222222222223L38.05285714285714,158.22222222222223L38.98142857142857,15.06919535663394L39.91,158.22222222222223L40.838571428571434,103.84754610723918L41.76714285714286,158.22222222222223L42.69571428571428,158.22222222222223L43.62428571428571,158.22222222222223L44.55285714285714,98.73652418620055L45.48142857142857,158.22222222222223L46.41,158.22222222222223L47.33857142857143,158.22222222222223L48.26714285714286,-5.3981745640437L49.19571428571429,158.22222222222223L50.12428571428571,158.22222222222223L51.05285714285714,-68.34259987539716L51.98142857142857,98.73887082934378L52.91,8.404183612929472L53.83857142857143,158.22222222222223L54.76714285714286,158.22222222222223L55.69571428571429,158.22222222222223L56.62428571428571,158.22222222222223L57.55285714285714,158.22222222222223L58.48142857142857,124.47617498702473L59.410000000000004,158.22222222222223L60.33857142857143,158.22222222222223L61.26714285714286,158.22222222222223L62.19571428571429,158.22222222222223L63.12428571428572,158.22222222222223L64.05285714285715,40.620867884821365L64.98142857142857,118.70526006817818L65.91,158.22222222222223L66.83857142857143,158.22222222222223L67.76714285714286,88.81167146232393L68.69571428571429,158.22222222222223L69.62428571428572,158.22222222222223L70.55285714285714,158.22222222222223L71.48142857142857,158.22222222222223L72.41000000000001,110.5427326609691L73.33857142857143,158.22222222222223L74.26714285714286,158.22222222222223L75.19571428571429,158.22222222222223L76.1242857142857,78.54541347424188L77.05285714285715,18.214964429537474L77.98142857142857,158.22222222222223L78.91,158.22222222222223L79.83857142857143,158.22222222222223L80.76714285714286,158.22222222222223L81.69571428571429,46.04321235749455L82.62428571428572,158.22222222222223L83.55285714285714,158.22222222222223L84.48142857142858,71.9579772584968L85.41,80.59235676460794L86.33857142857143,158.22222222222223L87.26714285714286,91.21419934100574L88.19571428571427,91.49668065375751L89.12428571428572,158.22222222222223L90.05285714285715,158.22222222222223L90.98142857142857,158.22222222222223L91.91,76.30362880892223L92.83857142857144,158.22222222222223L93.76714285714286,34.84714583555859L94.69571428571429,158.22222222222223L95.6242857142857,158.22222222222223L96.55285714285714,158.22222222222223L97.48142857142858,158.22222222222223L98.41,105.78740216129356L99.33857142857143,158.22222222222223L100.26714285714286,158.22222222222223L101.19571428571429,158.22222222222223L102.12428571428572,158.22222222222223L103.05285714285714,158.22222222222223L103.98142857142857,158.22222222222223L104.91000000000001,158.22222222222223L105.83857142857143,158.22222222222223L106.76714285714286,64.88420754008821L107.69571428571429,158.22222222222223L108.6242857142857,158.22222222222223L109.55285714285715,158.22222222222223L110.48142857142857,158.22222222222223L111.41,158.22222222222223L112.33857142857143,158.22222222222223L113.26714285714286,158.22222222222223L114.19571428571429,158.22222222222223L115.12428571428572,158.22222222222223L116.05285714285714,107.1663036710686L116.98142857142858,78.31981154945161L117.91,94.8968523674541L118.83857142857143,158.22222222222223L119.76714285714286,158.22222222222223L120.69571428571427,158.22222222222223L121.62428571428572,158.22222222222223L122.55285714285715,68.32437902026705L123.48142857142857,62.75954873363176L124.41,158.22222222222223L125.33857142857144,158.22222222222223L126.26714285714286,83.47063062257236L127.19571428571429,48.273400111330886L128.12428571428572,83.2039753364192L129.05285714285714,63.15749815106392L129.98142857142858,158.22222222222223L130.91,158.22222222222223L131.83857142857144,158.22222222222223L132.76714285714286,158.22222222222223L133.6957142857143,158.22222222222223L134.62428571428572,158.22222222222223L135.55285714285714,102.20464908579984L136.48142857142858,158.22222222222223L137.41,158.22222222222223L138.3385714285714,158.22222222222223L139.26714285714286,116.18972861270109L140.1957142857143,91.61043206188414L141.12428571428572,80.5463154051039L142.05285714285714,158.22222222222223L142.98142857142858,158.22222222222223L143.91,158.22222222222223L144.8385714285714,-127.21372422907092L145.76714285714286,158.22222222222223L146.69571428571427,158.22222222222223L147.62428571428572,158.22222222222223L148.55285714285716,158.22222222222223L149.48142857142858,158.22222222222223L150.41,95.91127267479895L151.33857142857144,158.22222222222223L152.26714285714286,90.49197110202577L153.19571428571427,80.4867099324862L154.1242857142857,158.22222222222223L155.05285714285714,38.35826919476193L155.98142857142858,158.22222222222223L156.91,73.80570270286665L157.83857142857144,64.44879287812445L158.76714285714286,158.22222222222223L159.69571428571427,158.22222222222223L160.62428571428572,108.11408226026428L161.55285714285714,42.13050725724963L162.48142857142855,42.407271160019775L163.41,101.03243268364005L164.33857142857144,158.22222222222223L165.26714285714286,158.22222222222223L166.1957142857143,158.22222222222223L167.12428571428572,27.090256141291746L168.05285714285714,89.87997983230484L168.98142857142858,158.22222222222223L169.91,158.22222222222223L170.8385714285714,158.22222222222223L171.76714285714286,158.22222222222223L172.6957142857143,97.24772830969756L173.62428571428572,158.22222222222223L174.55285714285714,158.22222222222223L175.48142857142858,158.22222222222223L176.41,158.22222222222223L177.3385714285714,158.22222222222223L178.26714285714286,158.22222222222223L179.19571428571427,103.47178849246767L180.12428571428572,158.22222222222223L181.05285714285716,158.22222222222223L181.98142857142858,158.22222222222223L182.91,158.22222222222223L183.83857142857144,63.701904624700546L184.76714285714286,158.22222222222223L185.69571428571427,158.22222222222223L186.6242857142857,158.22222222222223L187.55285714285714,158.22222222222223L188.48142857142858,158.22222222222223L189.41,158.22222222222223L190.33857142857144,158.22222222222223L191.26714285714286,158.22222222222223L192.19571428571427,99.1785256581174L193.12428571428572,106.1161311318477L194.05285714285714,158.22222222222223L194.98142857142855,158.22222222222223L195.91,158.22222222222223L196.83857142857144,158.22222222222223L197.76714285714286,158.22222222222223L198.6957142857143,158.22222222222223L199.62428571428572,158.22222222222223L200.55285714285714,158.22222222222223L201.48142857142858,158.22222222222223L202.41,158.22222222222223L203.3385714285714,158.22222222222223L204.26714285714286,158.22222222222223L205.1957142857143,158.22222222222223L206.12428571428572,158.22222222222223L207.05285714285714,158.22222222222223L207.98142857142858,158.22222222222223L208.91,26.012111763159453L209.8385714285714,158.22222222222223L210.76714285714286,41.304245733552506L211.69571428571427,110.2880168888304L212.62428571428572,158.22222222222223L213.55285714285716,158.22222222222223L214.48142857142858,118.98750561144615L215.41,158.22222222222223L216.33857142857144,158.22222222222223L217.26714285714286,158.22222222222223L218.19571428571427,158.22222222222223L219.1242857142857,158.22222222222223L220.05285714285714,158.22222222222223L220.98142857142858,158.22222222222223L221.91,158.22222222222223L222.83857142857144,158.22222222222223L223.76714285714286,158.22222222222223L224.69571428571427,158.22222222222223L225.62428571428572,158.22222222222223L226.55285714285714,158.22222222222223L227.48142857142855,158.22222222222223L228.41,158.22222222222223L229.33857142857144,158.22222222222223L230.26714285714286,118.30531397793027L231.1957142857143,158.22222222222223L232.12428571428572,158.22222222222223L233.05285714285714,143.76130185566015L233.98142857142858,158.22222222222223L234.91,158.22222222222223L235.8385714285714,158.22222222222223L236.76714285714286,122.8154847373565L237.6957142857143,158.22222222222223L238.62428571428572,158.22222222222223L239.55285714285714,84.20791863732866L240.48142857142858,97.15583346949683L241.41,158.22222222222223L242.3385714285714,158.22222222222223L243.26714285714286,158.22222222222223L244.19571428571427,158.22222222222223L245.12428571428572,158.22222222222223L246.05285714285716,158.22222222222223L246.98142857142858,158.22222222222223L247.91,158.22222222222223" style="fill: none;" fill="none"></path></g></g></g></g></g></g><g transform="translate(70, 178)" clip-path="url(#clip_1)"><clipPath id="clip_1"><rect width="260" height="21"></rect></clipPath><g><g><line x1="0" y1="0" x2="0" y2="5" style="visibility: inherit;" fill="rgb(0, 0, 0)" stroke="rgb(204, 204, 204)" stroke-width="1px"></line><line x1="18.57142857142857" y1="0" x2="18.57142857142857" y2="5" style="visibility: inherit;" fill="rgb(0, 0, 0)" stroke="rgb(204, 204, 204)" stroke-width="1px"></line><line x1="37.14285714285714" y1="0" x2="37.14285714285714" y2="5" style="visibility: inherit;" fill="rgb(0, 0, 0)" stroke="rgb(204, 204, 204)" stroke-width="1px"></line><line x1="55.71428571428571" y1="0" x2="55.71428571428571" y2="5" style="visibility: inherit;" fill="rgb(0, 0, 0)" stroke="rgb(204, 204, 204)" stroke-width="1px"></line><line x1="74.28571428571428" y1="0" x2="74.28571428571428" y2="5" style="visibility: inherit;" fill="rgb(0, 0, 0)" stroke="rgb(204, 204, 204)" stroke-width="1px"></line><line x1="92.85714285714286" y1="0" x2="92.85714285714286" y2="5" style="visibility: inherit;" fill="rgb(0, 0, 0)" stroke="rgb(204, 204, 204)" stroke-width="1px"></line><line x1="111.42857142857142" y1="0" x2="111.42857142857142" y2="5" style="visibility: inherit;" fill="rgb(0, 0, 0)" stroke="rgb(204, 204, 204)" stroke-width="1px"></line><line x1="130" y1="0" x2="130" y2="5" style="visibility: inherit;" fill="rgb(0, 0, 0)" stroke="rgb(204, 204, 204)" stroke-width="1px"></line><line x1="148.57142857142856" y1="0" x2="148.57142857142856" y2="5" style="visibility: inherit;" fill="rgb(0, 0, 0)" stroke="rgb(204, 204, 204)" stroke-width="1px"></line><line x1="167.14285714285717" y1="0" x2="167.14285714285717" y2="5" style="visibility: inherit;" fill="rgb(0, 0, 0)" stroke="rgb(204, 204, 204)" stroke-width="1px"></line><line x1="185.71428571428572" y1="0" x2="185.71428571428572" y2="5" style="visibility: inherit;" fill="rgb(0, 0, 0)" stroke="rgb(204, 204, 204)" stroke-width="1px"></line><line x1="204.28571428571428" y1="0" x2="204.28571428571428" y2="5" style="visibility: inherit;" fill="rgb(0, 0, 0)" stroke="rgb(204, 204, 204)" stroke-width="1px"></line><line x1="222.85714285714283" y1="0" x2="222.85714285714283" y2="5" style="visibility: inherit;" fill="rgb(0, 0, 0)" stroke="rgb(204, 204, 204)" stroke-width="1px"></line><line x1="241.42857142857144" y1="0" x2="241.42857142857144" y2="5" style="visibility: inherit;" fill="rgb(0, 0, 0)" stroke="rgb(204, 204, 204)" stroke-width="1px"></line><line x1="260" y1="0" x2="260" y2="5" style="visibility: inherit;" fill="rgb(0, 0, 0)" stroke="rgb(204, 204, 204)" stroke-width="1px"></line></g><g transform="translate(0, 8)"><text x="0" y="0" dx="0em" dy="0.95em" style="text-anchor: middle; visibility: hidden; font-family: &quot;Helvetica Neue&quot;, sans-serif; font-size: 12px; font-weight: 200;" fill="rgb(50, 49, 63)" stroke="none" stroke-width="1px">3k</text><text x="18.57142857142857" y="0" dx="0em" dy="0.95em" style="text-anchor: middle; visibility: inherit; font-family: &quot;Helvetica Neue&quot;, sans-serif; font-size: 12px; font-weight: 200;" fill="rgb(50, 49, 63)" stroke="none" stroke-width="1px">4k</text><text x="37.14285714285714" y="0" dx="0em" dy="0.95em" style="text-anchor: middle; visibility: hidden; font-family: &quot;Helvetica Neue&quot;, sans-serif; font-size: 12px; font-weight: 200;" fill="rgb(50, 49, 63)" stroke="none" stroke-width="1px">5k</text><text x="55.71428571428571" y="0" dx="0em" dy="0.95em" style="text-anchor: middle; visibility: inherit; font-family: &quot;Helvetica Neue&quot;, sans-serif; font-size: 12px; font-weight: 200;" fill="rgb(50, 49, 63)" stroke="none" stroke-width="1px">6k</text><text x="74.28571428571428" y="0" dx="0em" dy="0.95em" style="text-anchor: middle; visibility: hidden; font-family: &quot;Helvetica Neue&quot;, sans-serif; font-size: 12px; font-weight: 200;" fill="rgb(50, 49, 63)" stroke="none" stroke-width="1px">7k</text><text x="92.85714285714286" y="0" dx="0em" dy="0.95em" style="text-anchor: middle; visibility: inherit; font-family: &quot;Helvetica Neue&quot;, sans-serif; font-size: 12px; font-weight: 200;" fill="rgb(50, 49, 63)" stroke="none" stroke-width="1px">8k</text><text x="111.42857142857142" y="0" dx="0em" dy="0.95em" style="text-anchor: middle; visibility: hidden; font-family: &quot;Helvetica Neue&quot;, sans-serif; font-size: 12px; font-weight: 200;" fill="rgb(50, 49, 63)" stroke="none" stroke-width="1px">9k</text><text x="130" y="0" dx="0em" dy="0.95em" style="text-anchor: middle; visibility: inherit; font-family: &quot;Helvetica Neue&quot;, sans-serif; font-size: 12px; font-weight: 200;" fill="rgb(50, 49, 63)" stroke="none" stroke-width="1px">10k</text><text x="148.57142857142856" y="0" dx="0em" dy="0.95em" style="text-anchor: middle; visibility: hidden; font-family: &quot;Helvetica Neue&quot;, sans-serif; font-size: 12px; font-weight: 200;" fill="rgb(50, 49, 63)" stroke="none" stroke-width="1px">11k</text><text x="167.14285714285717" y="0" dx="0em" dy="0.95em" style="text-anchor: middle; visibility: inherit; font-family: &quot;Helvetica Neue&quot;, sans-serif; font-size: 12px; font-weight: 200;" fill="rgb(50, 49, 63)" stroke="none" stroke-width="1px">12k</text><text x="185.71428571428572" y="0" dx="0em" dy="0.95em" style="text-anchor: middle; visibility: hidden; font-family: &quot;Helvetica Neue&quot;, sans-serif; font-size: 12px; font-weight: 200;" fill="rgb(50, 49, 63)" stroke="none" stroke-width="1px">13k</text><text x="204.28571428571428" y="0" dx="0em" dy="0.95em" style="text-anchor: middle; visibility: inherit; font-family: &quot;Helvetica Neue&quot;, sans-serif; font-size: 12px; font-weight: 200;" fill="rgb(50, 49, 63)" stroke="none" stroke-width="1px">14k</text><text x="222.85714285714283" y="0" dx="0em" dy="0.95em" style="text-anchor: middle; visibility: hidden; font-family: &quot;Helvetica Neue&quot;, sans-serif; font-size: 12px; font-weight: 200;" fill="rgb(50, 49, 63)" stroke="none" stroke-width="1px">15k</text><text x="241.42857142857144" y="0" dx="0em" dy="0.95em" style="text-anchor: middle; visibility: inherit; font-family: &quot;Helvetica Neue&quot;, sans-serif; font-size: 12px; font-weight: 200;" fill="rgb(50, 49, 63)" stroke="none" stroke-width="1px">16k</text><text x="260" y="0" dx="0em" dy="0.95em" style="text-anchor: middle; visibility: hidden; font-family: &quot;Helvetica Neue&quot;, sans-serif; font-size: 12px; font-weight: 200;" fill="rgb(50, 49, 63)" stroke="none" stroke-width="1px">17k</text></g><line x1="0" y1="0" x2="260" y2="0" fill="rgb(0, 0, 0)" stroke="rgb(204, 204, 204)" stroke-width="1px"></line></g></g></g></g></svg>