<svg viewBox="0 0 330.0000305175781 200.00001525878906" xmlns="http://www.w3.org/2000/svg"><g><g><g><g><g><line x1="70" y1="178" x2="65" y2="178" style="visibility: inherit;" fill="rgb(0, 0, 0)" stroke="rgb(204, 204, 204)" stroke-width="1px"></line><line x1="70" y1="160.2" x2="65" y2="160.2" style="visibility: inherit;" fill="rgb(0, 0, 0)" stroke="rgb(204, 204, 204)" stroke-width="1px"></line><line x1="70" y1="142.4" x2="65" y2="142.4" style="visibility: inherit;" fill="rgb(0, 0, 0)" stroke="rgb(204, 204, 204)" stroke-width="1px"></line><line x1="70" y1="124.6" x2="65" y2="124.6" style="visibility: inherit;" fill="rgb(0, 0, 0)" stroke="rgb(204, 204, 204)" stroke-width="1px"></line><line x1="70" y1="106.8" x2="65" y2="106.8" style="visibility: inherit;" fill="rgb(0, 0, 0)" stroke="rgb(204, 204, 204)" stroke-width="1px"></line><line x1="70" y1="89" x2="65" y2="89" style="visibility: inherit;" fill="rgb(0, 0, 0)" stroke="rgb(204, 204, 204)" stroke-width="1px"></line><line x1="70" y1="71.2" x2="65" y2="71.2" style="visibility: inherit;" fill="rgb(0, 0, 0)" stroke="rgb(204, 204, 204)" stroke-width="1px"></line><line x1="70" y1="53.400000000000006" x2="65" y2="53.400000000000006" style="visibility: inherit;" fill="rgb(0, 0, 0)" stroke="rgb(204, 204, 204)" stroke-width="1px"></line><line x1="70" y1="35.60000000000002" x2="65" y2="35.60000000000002" style="visibility: inherit;" fill="rgb(0, 0, 0)" stroke="rgb(204, 204, 204)" stroke-width="1px"></line><line x1="70" y1="17.799999999999983" x2="65" y2="17.799999999999983" style="visibility: inherit;" fill="rgb(0, 0, 0)" stroke="rgb(204, 204, 204)" stroke-width="1px"></line><line x1="70" y1="0" x2="65" y2="0" style="visibility: inherit;" fill="rgb(0, 0, 0)" stroke="rgb(204, 204, 204)" stroke-width="1px"></line></g><g transform="translate(60, 0)"><text x="0" y="178" dx="0em" dy="0.3em" style="text-anchor: end; visibility: hidden; font-family: &quot;Helvetica Neue&quot;, sans-serif; font-size: 12px; font-weight: 200;" fill="rgb(50, 49, 63)" stroke="none" stroke-width="1px">-0.05</text><text x="0" y="160.2" dx="0em" dy="0.3em" style="text-anchor: end; visibility: inherit; font-family: &quot;Helvetica Neue&quot;, sans-serif; font-size: 12px; font-weight: 200;" fill="rgb(50, 49, 63)" stroke="none" stroke-width="1px">0</text><text x="0" y="142.4" dx="0em" dy="0.3em" style="text-anchor: end; visibility: hidden; font-family: &quot;Helvetica Neue&quot;, sans-serif; font-size: 12px; font-weight: 200;" fill="rgb(50, 49, 63)" stroke="none" stroke-width="1px">0.05</text><text x="0" y="124.6" dx="0em" dy="0.3em" style="text-anchor: end; visibility: inherit; font-family: &quot;Helvetica Neue&quot;, sans-serif; font-size: 12px; font-weight: 200;" fill="rgb(50, 49, 63)" stroke="none" stroke-width="1px">0.1</text><text x="0" y="106.8" dx="0em" dy="0.3em" style="text-anchor: end; visibility: hidden; font-family: &quot;Helvetica Neue&quot;, sans-serif; font-size: 12px; font-weight: 200;" fill="rgb(50, 49, 63)" stroke="none" stroke-width="1px">0.15</text><text x="0" y="89" dx="0em" dy="0.3em" style="text-anchor: end; visibility: inherit; font-family: &quot;Helvetica Neue&quot;, sans-serif; font-size: 12px; font-weight: 200;" fill="rgb(50, 49, 63)" stroke="none" stroke-width="1px">0.2</text><text x="0" y="71.2" dx="0em" dy="0.3em" style="text-anchor: end; visibility: hidden; font-family: &quot;Helvetica Neue&quot;, sans-serif; font-size: 12px; font-weight: 200;" fill="rgb(50, 49, 63)" stroke="none" stroke-width="1px">0.25</text><text x="0" y="53.400000000000006" dx="0em" dy="0.3em" style="text-anchor: end; visibility: inherit; font-family: &quot;Helvetica Neue&quot;, sans-serif; font-size: 12px; font-weight: 200;" fill="rgb(50, 49, 63)" stroke="none" stroke-width="1px">0.3</text><text x="0" y="35.60000000000002" dx="0em" dy="0.3em" style="text-anchor: end; visibility: hidden; font-family: &quot;Helvetica Neue&quot;, sans-serif; font-size: 12px; font-weight: 200;" fill="rgb(50, 49, 63)" stroke="none" stroke-width="1px">0.35</text><text x="0" y="17.799999999999983" dx="0em" dy="0.3em" style="text-anchor: end; visibility: inherit; font-family: &quot;Helvetica Neue&quot;, sans-serif; font-size: 12px; font-weight: 200;" fill="rgb(50, 49, 63)" stroke="none" stroke-width="1px">0.4</text><text x="0" y="0" dx="0em" dy="0.3em" style="text-anchor: end; visibility: hidden; font-family: &quot;Helvetica Neue&quot;, sans-serif; font-size: 12px; font-weight: 200;" fill="rgb(50, 49, 63)" stroke="none" stroke-width="1px">0.45</text></g><line x1="70" y1="0" x2="70" y2="178" fill="rgb(0, 0, 0)" stroke="rgb(204, 204, 204)" stroke-width="1px"></line></g></g><g transform="translate(70, 0)" clip-path="url(#clip_0)"><clipPath id="clip_0"><rect width="260" height="177"></rect></clipPath><g><g><g><line x1="0" y1="0" x2="0" y2="178" fill="rgb(0, 0, 0)" stroke="rgb(60, 60, 60)" stroke-width="1px" opacity="0.25"></line><line x1="18.57142857142857" y1="0" x2="18.57142857142857" y2="178" fill="rgb(0, 0, 0)" stroke="rgb(60, 60, 60)" stroke-width="1px" opacity="0.25"></line><line x1="37.14285714285714" y1="0" x2="37.14285714285714" y2="178" fill="rgb(0, 0, 0)" stroke="rgb(60, 60, 60)" stroke-width="1px" opacity="0.25"></line><line x1="55.71428571428571" y1="0" x2="55.71428571428571" y2="178" fill="rgb(0, 0, 0)" stroke="rgb(60, 60, 60)" stroke-width="1px" opacity="0.25"></line><line x1="74.28571428571428" y1="0" x2="74.28571428571428" y2="178" fill="rgb(0, 0, 0)" stroke="rgb(60, 60, 60)" stroke-width="1px" opacity="0.25"></line><line x1="92.85714285714286" y1="0" x2="92.85714285714286" y2="178" fill="rgb(0, 0, 0)" stroke="rgb(60, 60, 60)" stroke-width="1px" opacity="0.25"></line><line x1="111.42857142857142" y1="0" x2="111.42857142857142" y2="178" fill="rgb(0, 0, 0)" stroke="rgb(60, 60, 60)" stroke-width="1px" opacity="0.25"></line><line x1="130" y1="0" x2="130" y2="178" fill="rgb(0, 0, 0)" stroke="rgb(60, 60, 60)" stroke-width="1px" opacity="0.25"></line><line x1="148.57142857142856" y1="0" x2="148.57142857142856" y2="178" fill="rgb(0, 0, 0)" stroke="rgb(60, 60, 60)" stroke-width="1px" opacity="0.25"></line><line x1="167.14285714285717" y1="0" x2="167.14285714285717" y2="178" fill="rgb(0, 0, 0)" stroke="rgb(60, 60, 60)" stroke-width="1px" opacity="0.25"></line><line x1="185.71428571428572" y1="0" x2="185.71428571428572" y2="178" fill="rgb(0, 0, 0)" stroke="rgb(60, 60, 60)" stroke-width="1px" opacity="0.25"></line><line x1="204.28571428571428" y1="0" x2="204.28571428571428" y2="178" fill="rgb(0, 0, 0)" stroke="rgb(60, 60, 60)" stroke-width="1px" opacity="0.25"></line><line x1="222.85714285714283" y1="0" x2="222.85714285714283" y2="178" fill="rgb(0, 0, 0)" stroke="rgb(60, 60, 60)" stroke-width="1px" opacity="0.25"></line><line x1="241.42857142857144" y1="0" x2="241.42857142857144" y2="178" fill="rgb(0, 0, 0)" stroke="rgb(60, 60, 60)" stroke-width="1px" opacity="0.25"></line><line x1="260" y1="0" x2="260" y2="178" fill="rgb(0, 0, 0)" stroke="rgb(60, 60, 60)" stroke-width="1px" opacity="0.25"></line></g><g><line x1="0" y1="178" x2="260" y2="178" fill="rgb(0, 0, 0)" stroke="rgb(60, 60, 60)" stroke-width="1px" opacity="0.25"></line><line x1="0" y1="160.2" x2="260" y2="160.2" fill="rgb(0, 0, 0)" stroke="rgb(60, 60, 60)" stroke-width="1px" opacity="0.25"></line><line x1="0" y1="142.4" x2="260" y2="142.4" fill="rgb(0, 0, 0)" stroke="rgb(60, 60, 60)" stroke-width="1px" opacity="0.25"></line><line x1="0" y1="124.6" x2="260" y2="124.6" fill="rgb(0, 0, 0)" stroke="rgb(60, 60, 60)" stroke-width="1px" opacity="0.25"></line><line x1="0" y1="106.8" x2="260" y2="106.8" fill="rgb(0, 0, 0)" stroke="rgb(60, 60, 60)" stroke-width="1px" opacity="0.25"></line><line x1="0" y1="89" x2="260" y2="89" fill="rgb(0, 0, 0)" stroke="rgb(60, 60, 60)" stroke-width="1px" opacity="0.25"></line><line x1="0" y1="71.2" x2="260" y2="71.2" fill="rgb(0, 0, 0)" stroke="rgb(60, 60, 60)" stroke-width="1px" opacity="0.25"></line><line x1="0" y1="53.400000000000006" x2="260" y2="53.400000000000006" fill="rgb(0, 0, 0)" stroke="rgb(60, 60, 60)" stroke-width="1px" opacity="0.25"></line><line x1="0" y1="35.60000000000002" x2="260" y2="35.60000000000002" fill="rgb(0, 0, 0)" stroke="rgb(60, 60, 60)" stroke-width="1px" opacity="0.25"></line><line x1="0" y1="17.799999999999983" x2="260" y2="17.799999999999983" fill="rgb(0, 0, 0)" stroke="rgb(60, 60, 60)" stroke-width="1px" opacity="0.25"></line><line x1="0" y1="0" x2="260" y2="0" fill="rgb(0, 0, 0)" stroke="rgb(60, 60, 60)" stroke-width="1px" opacity="0.25"></line></g></g></g><g><g><line x1="0" y1="160.2" x2="260" y2="160.2" fill="rgb(0, 0, 0)" stroke="rgb(153, 153, 153)" stroke-width="1.5px"></line></g></g><g><g><line x1="-55.71428571428571" y1="0" x2="-55.71428571428571" y2="178" fill="rgb(0, 0, 0)" stroke="rgb(153, 153, 153)" stroke-width="1.5px"></line></g></g><g><g><g><g><g><path stroke="rgb(255, 112, 67)" stroke-width="2px" d="M6.481428571428571,160.2L7.41,27.3159157881866L8.338571428571429,6.602350505424823L9.267142857142858,16.90586436716879L10.195714285714287,55.543875529058L11.124285714285715,62.05377258313112L12.052857142857142,83.7220646860394L12.981428571428571,73.27852388194803L13.91,73.54553315803649L14.838571428571429,62.823200436634124L15.767142857142858,45.2244572192248L16.695714285714285,65.33074189861811L17.624285714285712,69.03205483213155L18.552857142857142,84.27361690463773L19.48142857142857,96.75267252804599L20.41,91.58622088674464L21.338571428571427,102.57161348703922L22.267142857142858,97.6761414675186L23.19571428571429,107.50281095498701L24.124285714285715,97.56682876587604L25.052857142857146,54.70266747664458L25.98142857142857,70.98318302491391L26.91,84.69201971185075L27.838571428571427,73.89682507871876L28.767142857142858,56.39414950357262L29.695714285714285,72.19602102247414L30.624285714285715,73.85427554787893L31.552857142857142,71.0277349712705L32.48142857142857,58.24465521576511L33.410000000000004,48.48923939628972L34.33857142857143,31.307734468599364L35.26714285714286,-125.46154475027066L38.98142857142857,-10.569586934820222L39.91,15.108666447803387L40.838571428571434,24.403590939986827L41.76714285714286,44.809117296341554L42.69571428571428,62.14379160477033L43.62428571428571,76.87102889900015L44.55285714285714,75.24637726117899L45.48142857142857,88.00118827027015L46.41,98.83950955662192L47.33857142857143,108.0497224580538L48.26714285714286,91.2215550408886L49.19571428571429,101.57330722339255L50.12428571428571,110.37091255273032L51.05285714285714,91.09917211726821L51.98142857142857,88.80116978125159L52.91,79.24908250387223L53.83857142857143,91.39431544274805L54.76714285714286,101.71704311019249L55.69571428571429,110.49084123915675L56.62428571428571,117.94819369919028L57.55285714285714,124.28667168568276L58.48142857142857,118.85611742519592L59.410000000000004,125.05819965625466L60.33857142857143,130.32983083620934L61.26714285714286,134.8106171202062L62.19571428571429,138.61921305565352L63.12428571428572,141.85646728886775L64.05285714285715,119.14323885826443L64.98142857142857,120.42400889033087L65.91,126.39056171037757L66.83857142857143,131.46208882885486L67.76714285714286,118.88517446376346L68.69571428571429,125.08249662532705L69.62428571428572,130.35019317540002L70.55285714285714,134.8277155280616L71.48142857142857,138.6335952838955L72.41000000000001,126.14646096176716L73.33857142857143,131.25452777903092L74.26714285714286,135.59637459432116L75.19571428571429,139.28693717723598L76.1242857142857,134.6799984281239L77.05285714285715,116.08492179567666L77.98142857142857,122.70220419705805L78.91,128.32688850208862L79.83857142857143,133.10786601700673L80.76714285714286,137.17169391039215L81.69571428571429,130.0563392651798L82.62428571428572,134.5778946423883L83.55285714285714,138.421214973925L84.48142857142858,121.91884719359152L85.41,114.40857799296299L86.33857142857143,121.27729626362778L87.26714285714286,122.32531155839047L88.19571428571427,110.42307018257779L89.12428571428572,117.88961297278234L90.05285714285715,124.23617342382428L90.98142857142857,129.63074914205353L91.91,118.7151460180417L92.83857142857144,124.93787555864651L93.76714285714286,121.37805103419102L94.69571428571429,127.20134435491792L95.6242857142857,132.15114340673583L96.55285714285714,136.35847240512808L97.48142857142858,139.93470191240226L98.41,129.40662224452547L99.33857142857143,134.02562925129396L100.26714285714286,137.95178511174055L101.19571428571429,141.28901752426108L102.12428571428572,144.1256650251529L103.05285714285714,146.53681536496612L103.98142857142857,148.58629312783717L104.91000000000001,150.32834920751412L105.83857142857143,151.80909686168297L106.76714285714286,131.63970692248915L107.69571428571429,135.9237509578953L108.6242857142857,139.5651883675167L109.55285714285715,142.66041015090255L110.48142857142857,145.29134865609308L111.41,147.52764637778333L112.33857142857143,149.42849943564113L113.26714285714286,151.04422453078948L114.19571428571429,152.41759085875336L115.12428571428572,153.58495223541857L116.05285714285714,140.76472616939805L116.98142857142858,118.50857049942586L117.91,112.74929760716032L118.83857142857143,119.8669029835221L119.76714285714286,125.91686754859117L120.69571428571427,131.05933742540412L121.62428571428572,135.43043681816943L122.55285714285715,123.48244004103742L123.48142857142857,108.59841486619605L124.41,116.33865264341782L125.33857142857144,122.91785475207186L126.26714285714286,114.78843908347334L127.19571428571429,99.93923719668273L128.12428571428572,96.77130044876044L129.05285714285714,86.86599068088314L129.98142857142858,97.86609208258362L130.91,107.21617827296538L131.83857142857144,115.1637515340214L132.76714285714286,121.91918880536377L133.6957142857143,127.66131048560365L134.62428571428572,132.5421139135177L135.55285714285714,125.56008619396354L136.48142857142858,130.75607326544943L137.41,135.17266227605137L138.3385714285714,138.92676293494662L139.26714285714286,129.63965531400714L140.1957142857143,121.96125927483067L141.12428571428572,122.31532075960972L142.05285714285714,127.99802264590767L142.98142857142858,132.8283192491945L143.91,136.93407136194028L144.8385714285714,117.89843607667808L145.76714285714286,124.2436706653159L146.69571428571427,129.63712006561934L147.62428571428572,134.2215520558493L148.55285714285716,138.11831924752454L149.48142857142858,141.43057136043387L150.41,133.47312553456413L151.33857142857144,137.48215670441277L152.26714285714286,126.47354820240213L153.19571428571427,117.1918102434553L154.1242857142857,123.64303870696986L155.05285714285714,107.03564189490726L155.98142857142858,115.01029561070052L156.91,104.15429433651677L157.83857142857144,104.73395506320279L158.76714285714286,113.05386180374117L159.69571428571427,120.12578253319359L160.62428571428572,114.49229382866616L161.55285714285714,103.36174737774671L162.48142857142855,100.42660491107395L163.41,97.83527002684728L164.33857142857144,107.18997952282815L165.26714285714286,115.1414825944097L166.1957142857143,121.90026020525241L167.12428571428572,111.95328558156956L168.05285714285714,108.3256675735056L168.98142857142858,116.1068174374827L169.91,122.72079482186241L170.8385714285714,128.3426755985846L171.76714285714286,133.12127425879802L172.6957142857143,118.83225039540426L173.62428571428572,125.03741283609466L174.55285714285714,130.3118009106812L175.48142857142858,134.79503077407958L176.41,138.60577615796802L177.3385714285714,141.84490973427313L178.26714285714286,144.59817327413236L179.19571428571427,135.78733672629025L180.12428571428572,139.4492362173469L181.05285714285716,142.56185078474502L181.98142857142858,145.2075731670334L182.91,147.45643719197844L183.83857142857144,132.99311715580288L184.76714285714286,137.07414958243254L185.69571428571427,140.54302714506773L186.6242857142857,143.49157307330762L187.55285714285714,145.99783711231152L188.48142857142858,148.12816154546482L189.41,149.9389373136451L190.33857142857144,151.47809671659837L191.26714285714286,152.7863822091086L192.19571428571427,140.67839651904436L193.12428571428572,131.23430088601148L194.05285714285714,135.57915575310977L194.98142857142855,139.27228239014335L195.91,142.41144003162185L196.83857142857144,145.07972402687858L197.76714285714286,147.3477654228468L198.6957142857143,149.27560060941977L199.62428571428572,150.9142605180068L200.55285714285714,152.3071214403058L201.48142857142858,153.49105322425993L202.41,154.49739524062093L203.3385714285714,155.3527859545278L204.26714285714286,156.07986806134863L205.1957142857143,156.69788785214632L206.12428571428572,157.2232046743244L207.05285714285714,157.66972397317573L207.98142857142858,158.04926537719936L208.91,138.22884612520969L209.8385714285714,141.52451920642824L210.76714285714286,124.77129604810689L211.69571428571427,119.28463661785008L212.62428571428572,125.42194112517257L213.55285714285716,130.63864995639668L214.48142857142858,122.69155647795374L215.41,128.31782300626065L216.33857142857144,133.10014955532156L217.26714285714286,137.16512712202334L218.19571428571427,140.62035805371983L219.1242857142857,143.55730434566186L220.05285714285714,146.05370869381258L220.98142857142858,148.1756523897407L221.91,149.97930453127958L222.83857142857144,151.51240885158765L223.76714285714286,152.81554752384952L224.69571428571427,153.92321539527208L225.62428571428572,154.86473308598127L226.55285714285714,155.66502312308407L227.48142857142855,156.34526965462146L228.41,156.92347920642825L229.33857142857144,157.414957325464L230.26714285714286,144.95851888406742L231.1957142857143,147.2447410514573L232.12428571428572,149.1880298937387L233.05285714285714,149.56060062873092L233.98142857142858,151.1565105344213L234.91,152.5130339542581L235.8385714285714,153.6660788611194L236.76714285714286,143.4487016896682L237.6957142857143,145.961396436218L238.62428571428572,148.0971869707853L239.55285714285714,137.1237894839682L240.48142857142858,127.51060612525961L241.41,132.41401520647065L242.3385714285714,136.58191292550006L243.26714285714286,140.12462598667506L244.19571428571427,143.1359320886738L245.12428571428572,145.69554227537273L246.05285714285716,147.87121093406682L246.98142857142858,149.72052929395682L247.91,151.29244989986327" style="fill: none;" fill="none"></path></g></g></g></g><g opacity="0.2"><g><g><g><path stroke="rgb(255, 112, 67)" stroke-width="2px" d="M6.481428571428571,160.2L7.41,-85.63555579185487L8.338571428571429,-25.96973090171815L9.267142857142858,39.43578536510469L10.195714285714287,160.2L11.124285714285715,82.57515908479691L12.052857142857142,160.2L12.981428571428571,33.070232105255144L13.91,74.64629323482514L14.838571428571429,16.13633413314821L15.767142857142858,-34.86821584701539L16.695714285714285,160.2L17.624285714285712,87.02276767492295L18.552857142857142,160.2L19.48142857142857,160.2L20.41,64.8670925617218L21.338571428571427,160.2L22.267142857142858,71.68596334457398L23.19571428571429,160.2L24.124285714285715,43.8303564310074L25.052857142857146,-178.7796760082245L25.98142857142857,160.2L26.91,160.2L27.838571428571427,14.18016297817232L28.767142857142858,-40.78096084594728L29.695714285714285,160.2L30.624285714285715,83.11368782520294L31.552857142857142,55.209690403938296L32.48142857142857,-13.427740979194652L35.26714285714286,-1008.0587661743164L36.19571428571428,160.2L37.12428571428572,160.2L38.05285714285714,160.2L38.98142857142857,13.645819735527056L39.91,160.2L40.838571428571434,76.94598288536072L41.76714285714286,160.2L42.69571428571428,160.2L43.62428571428571,160.2L44.55285714285714,66.05177409648896L45.48142857142857,160.2L46.41,160.2L47.33857142857143,160.2L48.26714285714286,-4.074495601654064L49.19571428571429,160.2L50.12428571428571,160.2L51.05285714285714,-18.062651920318615L51.98142857142857,75.78368766307831L52.91,25.13659722805025L53.83857142857143,160.2L54.76714285714286,160.2L55.69571428571429,160.2L56.62428571428571,160.2L57.55285714285714,160.2L58.48142857142857,88.08640928268433L59.410000000000004,160.2L60.33857142857143,160.2L61.26714285714286,160.2L62.19571428571429,160.2L63.12428571428572,160.2L64.05285714285715,-9.559640812873852L64.98142857142857,127.68144620656967L65.91,160.2L66.83857142857143,160.2L67.76714285714286,47.617558193206804L68.69571428571429,160.2L69.62428571428572,160.2L70.55285714285714,160.2L71.48142857142857,160.2L72.41000000000001,55.38672263622284L73.33857142857143,160.2L74.26714285714286,160.2L75.19571428571429,160.2L76.1242857142857,108.5741449713707L77.05285714285715,10.713276457786577L77.98142857142857,160.2L78.91,160.2L79.83857142857143,160.2L80.76714285714286,160.2L81.69571428571429,89.73607362508774L82.62428571428572,160.2L83.55285714285714,160.2L84.48142857142858,28.405539941787737L85.41,71.85042847394944L86.33857142857143,160.2L87.26714285714286,128.26406059861182L88.19571428571427,42.97707719802858L89.12428571428572,160.2L90.05285714285715,160.2L90.98142857142857,160.2L91.91,56.860081505775455L92.83857142857144,160.2L93.76714285714286,101.20571674108506L94.69571428571429,160.2L95.6242857142857,160.2L96.55285714285714,160.2L97.48142857142858,160.2L98.41,69.74751026630402L99.33857142857143,160.2L100.26714285714286,160.2L101.19571428571429,160.2L102.12428571428572,160.2L103.05285714285714,160.2L103.98142857142857,160.2L104.91000000000001,160.2L105.83857142857143,160.2L106.76714285714286,17.346499991416948L107.69571428571429,160.2L108.6242857142857,160.2L109.55285714285715,160.2L110.48142857142857,160.2L111.41,160.2L112.33857142857143,160.2L113.26714285714286,160.2L114.19571428571429,160.2L115.12428571428572,160.2L116.05285714285714,68.1167788028717L116.98142857142858,-7.609644460678112L117.91,80.11341799497605L118.83857142857143,160.2L119.76714285714286,160.2L120.69571428571427,160.2L121.62428571428572,160.2L122.55285714285715,55.77712507247925L123.48142857142857,24.255605649948137L124.41,160.2L125.33857142857144,160.2L126.26714285714286,68.72175033092499L127.19571428571429,15.79375989437105L128.12428571428572,78.81965888738632L129.05285714285714,30.735902023315447L129.98142857142858,160.2L130.91,160.2L131.83857142857144,160.2L132.76714285714286,160.2L133.6957142857143,160.2L134.62428571428572,160.2L135.55285714285714,85.99526245594025L136.48142857142858,160.2L137.41,160.2L138.3385714285714,160.2L139.26714285714286,77.01271213293076L140.1957142857143,78.45034838914872L141.12428571428572,124.32166917324066L142.05285714285714,160.2L142.98142857142858,160.2L143.91,160.2L144.8385714285714,10.029836130142229L145.76714285714286,160.2L146.69571428571427,160.2L147.62428571428572,160.2L148.55285714285716,160.2L149.48142857142858,160.2L150.41,88.38093252182007L151.33857142857144,160.2L152.26714285714286,64.09143335819245L153.19571428571427,64.59529514312744L154.1242857142857,160.2L155.05285714285714,12.927059960365312L155.98142857142858,160.2L156.91,42.636953783035295L157.83857142857144,108.01869918107987L158.76714285714286,160.2L159.69571428571427,160.2L160.62428571428572,82.56919116973877L161.55285714285714,40.28865082263948L162.48142857142855,83.79413093328476L163.41,83.1510390162468L164.33857142857144,160.2L165.26714285714286,160.2L166.1957142857143,160.2L167.12428571428572,55.58709604740143L168.05285714285714,87.76916552782059L168.98142857142858,160.2L169.91,160.2L170.8385714285714,160.2L171.76714285714286,160.2L172.6957142857143,37.86111516952516L173.62428571428572,160.2L174.55285714285714,160.2L175.48142857142858,160.2L176.41,160.2L177.3385714285714,160.2L178.26714285714286,160.2L179.19571428571427,85.85926295518875L180.12428571428572,160.2L181.05285714285716,160.2L181.98142857142858,160.2L182.91,160.2L183.83857142857144,51.03430361747742L184.76714285714286,160.2L185.69571428571427,160.2L186.6242857142857,160.2L187.55285714285714,160.2L188.48142857142858,160.2L189.41,160.2L190.33857142857144,160.2L191.26714285714286,160.2L192.19571428571427,72.06647760868073L193.12428571428572,77.71775896549225L194.05285714285714,160.2L194.98142857142855,160.2L195.91,160.2L196.83857142857144,160.2L197.76714285714286,160.2L198.6957142857143,160.2L199.62428571428572,160.2L200.55285714285714,160.2L201.48142857142858,160.2L202.41,160.2L203.3385714285714,160.2L204.26714285714286,160.2L205.1957142857143,160.2L206.12428571428572,160.2L207.05285714285714,160.2L207.98142857142858,160.2L208.91,25.91313703060152L209.8385714285714,160.2L210.76714285714286,29.83636481761934L211.69571428571427,88.19356651306153L212.62428571428572,160.2L213.55285714285716,160.2L214.48142857142858,77.65802676677704L215.41,160.2L216.33857142857144,160.2L217.26714285714286,160.2L218.19571428571427,160.2L219.1242857142857,160.2L220.05285714285714,160.2L220.98142857142858,160.2L221.91,160.2L222.83857142857144,160.2L223.76714285714286,160.2L224.69571428571427,160.2L225.62428571428572,160.2L226.55285714285714,160.2L227.48142857142855,160.2L228.41,160.2L229.33857142857144,160.2L230.26714285714286,74.37203438282013L231.1957142857143,160.2L232.12428571428572,160.2L233.05285714285714,151.67183479368686L233.98142857142858,160.2L234.91,160.2L235.8385714285714,160.2L236.76714285714286,85.55023105144501L237.6957142857143,160.2L238.62428571428572,160.2L239.55285714285714,74.94120372533799L240.48142857142858,73.03590042591095L241.41,160.2L242.3385714285714,160.2L243.26714285714286,160.2L244.19571428571427,160.2L245.12428571428572,160.2L246.05285714285716,160.2L246.98142857142858,160.2L247.91,160.2" style="fill: none;" fill="none"></path></g></g></g></g></g><g><g><g><g><rect x="22" y="173" width="233" height="5" fill="rgb(0, 0, 0)" stroke="rgb(204, 204, 204)" stroke-width="1px"></rect></g></g></g></g></g><g transform="translate(70, 178)" clip-path="url(#clip_1)"><clipPath id="clip_1"><rect width="260" height="21"></rect></clipPath><g><g><line x1="0" y1="0" x2="0" y2="5" style="visibility: inherit;" fill="rgb(0, 0, 0)" stroke="rgb(204, 204, 204)" stroke-width="1px"></line><line x1="18.57142857142857" y1="0" x2="18.57142857142857" y2="5" style="visibility: inherit;" fill="rgb(0, 0, 0)" stroke="rgb(204, 204, 204)" stroke-width="1px"></line><line x1="37.14285714285714" y1="0" x2="37.14285714285714" y2="5" style="visibility: inherit;" fill="rgb(0, 0, 0)" stroke="rgb(204, 204, 204)" stroke-width="1px"></line><line x1="55.71428571428571" y1="0" x2="55.71428571428571" y2="5" style="visibility: inherit;" fill="rgb(0, 0, 0)" stroke="rgb(204, 204, 204)" stroke-width="1px"></line><line x1="74.28571428571428" y1="0" x2="74.28571428571428" y2="5" style="visibility: inherit;" fill="rgb(0, 0, 0)" stroke="rgb(204, 204, 204)" stroke-width="1px"></line><line x1="92.85714285714286" y1="0" x2="92.85714285714286" y2="5" style="visibility: inherit;" fill="rgb(0, 0, 0)" stroke="rgb(204, 204, 204)" stroke-width="1px"></line><line x1="111.42857142857142" y1="0" x2="111.42857142857142" y2="5" style="visibility: inherit;" fill="rgb(0, 0, 0)" stroke="rgb(204, 204, 204)" stroke-width="1px"></line><line x1="130" y1="0" x2="130" y2="5" style="visibility: inherit;" fill="rgb(0, 0, 0)" stroke="rgb(204, 204, 204)" stroke-width="1px"></line><line x1="148.57142857142856" y1="0" x2="148.57142857142856" y2="5" style="visibility: inherit;" fill="rgb(0, 0, 0)" stroke="rgb(204, 204, 204)" stroke-width="1px"></line><line x1="167.14285714285717" y1="0" x2="167.14285714285717" y2="5" style="visibility: inherit;" fill="rgb(0, 0, 0)" stroke="rgb(204, 204, 204)" stroke-width="1px"></line><line x1="185.71428571428572" y1="0" x2="185.71428571428572" y2="5" style="visibility: inherit;" fill="rgb(0, 0, 0)" stroke="rgb(204, 204, 204)" stroke-width="1px"></line><line x1="204.28571428571428" y1="0" x2="204.28571428571428" y2="5" style="visibility: inherit;" fill="rgb(0, 0, 0)" stroke="rgb(204, 204, 204)" stroke-width="1px"></line><line x1="222.85714285714283" y1="0" x2="222.85714285714283" y2="5" style="visibility: inherit;" fill="rgb(0, 0, 0)" stroke="rgb(204, 204, 204)" stroke-width="1px"></line><line x1="241.42857142857144" y1="0" x2="241.42857142857144" y2="5" style="visibility: inherit;" fill="rgb(0, 0, 0)" stroke="rgb(204, 204, 204)" stroke-width="1px"></line><line x1="260" y1="0" x2="260" y2="5" style="visibility: inherit;" fill="rgb(0, 0, 0)" stroke="rgb(204, 204, 204)" stroke-width="1px"></line></g><g transform="translate(0, 8)"><text x="0" y="0" dx="0em" dy="0.95em" style="text-anchor: middle; visibility: hidden; font-family: &quot;Helvetica Neue&quot;, sans-serif; font-size: 12px; font-weight: 200;" fill="rgb(50, 49, 63)" stroke="none" stroke-width="1px">3k</text><text x="18.57142857142857" y="0" dx="0em" dy="0.95em" style="text-anchor: middle; visibility: inherit; font-family: &quot;Helvetica Neue&quot;, sans-serif; font-size: 12px; font-weight: 200;" fill="rgb(50, 49, 63)" stroke="none" stroke-width="1px">4k</text><text x="37.14285714285714" y="0" dx="0em" dy="0.95em" style="text-anchor: middle; visibility: hidden; font-family: &quot;Helvetica Neue&quot;, sans-serif; font-size: 12px; font-weight: 200;" fill="rgb(50, 49, 63)" stroke="none" stroke-width="1px">5k</text><text x="55.71428571428571" y="0" dx="0em" dy="0.95em" style="text-anchor: middle; visibility: inherit; font-family: &quot;Helvetica Neue&quot;, sans-serif; font-size: 12px; font-weight: 200;" fill="rgb(50, 49, 63)" stroke="none" stroke-width="1px">6k</text><text x="74.28571428571428" y="0" dx="0em" dy="0.95em" style="text-anchor: middle; visibility: hidden; font-family: &quot;Helvetica Neue&quot;, sans-serif; font-size: 12px; font-weight: 200;" fill="rgb(50, 49, 63)" stroke="none" stroke-width="1px">7k</text><text x="92.85714285714286" y="0" dx="0em" dy="0.95em" style="text-anchor: middle; visibility: inherit; font-family: &quot;Helvetica Neue&quot;, sans-serif; font-size: 12px; font-weight: 200;" fill="rgb(50, 49, 63)" stroke="none" stroke-width="1px">8k</text><text x="111.42857142857142" y="0" dx="0em" dy="0.95em" style="text-anchor: middle; visibility: hidden; font-family: &quot;Helvetica Neue&quot;, sans-serif; font-size: 12px; font-weight: 200;" fill="rgb(50, 49, 63)" stroke="none" stroke-width="1px">9k</text><text x="130" y="0" dx="0em" dy="0.95em" style="text-anchor: middle; visibility: inherit; font-family: &quot;Helvetica Neue&quot;, sans-serif; font-size: 12px; font-weight: 200;" fill="rgb(50, 49, 63)" stroke="none" stroke-width="1px">10k</text><text x="148.57142857142856" y="0" dx="0em" dy="0.95em" style="text-anchor: middle; visibility: hidden; font-family: &quot;Helvetica Neue&quot;, sans-serif; font-size: 12px; font-weight: 200;" fill="rgb(50, 49, 63)" stroke="none" stroke-width="1px">11k</text><text x="167.14285714285717" y="0" dx="0em" dy="0.95em" style="text-anchor: middle; visibility: inherit; font-family: &quot;Helvetica Neue&quot;, sans-serif; font-size: 12px; font-weight: 200;" fill="rgb(50, 49, 63)" stroke="none" stroke-width="1px">12k</text><text x="185.71428571428572" y="0" dx="0em" dy="0.95em" style="text-anchor: middle; visibility: hidden; font-family: &quot;Helvetica Neue&quot;, sans-serif; font-size: 12px; font-weight: 200;" fill="rgb(50, 49, 63)" stroke="none" stroke-width="1px">13k</text><text x="204.28571428571428" y="0" dx="0em" dy="0.95em" style="text-anchor: middle; visibility: inherit; font-family: &quot;Helvetica Neue&quot;, sans-serif; font-size: 12px; font-weight: 200;" fill="rgb(50, 49, 63)" stroke="none" stroke-width="1px">14k</text><text x="222.85714285714283" y="0" dx="0em" dy="0.95em" style="text-anchor: middle; visibility: hidden; font-family: &quot;Helvetica Neue&quot;, sans-serif; font-size: 12px; font-weight: 200;" fill="rgb(50, 49, 63)" stroke="none" stroke-width="1px">15k</text><text x="241.42857142857144" y="0" dx="0em" dy="0.95em" style="text-anchor: middle; visibility: inherit; font-family: &quot;Helvetica Neue&quot;, sans-serif; font-size: 12px; font-weight: 200;" fill="rgb(50, 49, 63)" stroke="none" stroke-width="1px">16k</text><text x="260" y="0" dx="0em" dy="0.95em" style="text-anchor: middle; visibility: hidden; font-family: &quot;Helvetica Neue&quot;, sans-serif; font-size: 12px; font-weight: 200;" fill="rgb(50, 49, 63)" stroke="none" stroke-width="1px">17k</text></g><line x1="0" y1="0" x2="260" y2="0" fill="rgb(0, 0, 0)" stroke="rgb(204, 204, 204)" stroke-width="1px"></line></g></g></g></g></svg>